<?xml version="1.0" standalone="no"?>
<!DOCTYPE svg PUBLIC "-//W3C//DTD SVG 1.1//EN" "http://www.w3.org/Graphics/SVG/1.1/DTD/svg11.dtd" >
<svg xmlns="http://www.w3.org/2000/svg">
<metadata>
Created by FontForge 20120731 at Fri Nov 18 09:46:45 2016
 By admin
</metadata>
<defs>
<font id="icon" horiz-adv-x="1024" >
  <font-face 
    font-family="icon"
    font-weight="500"
    font-stretch="normal"
    units-per-em="1024"
    panose-1="2 0 6 3 0 0 0 0 0 0"
    ascent="896"
    descent="-128"
    x-height="792"
    bbox="-20 -192 1470 1008"
    underline-thickness="0"
    underline-position="0"
    unicode-range="U+0078-E68E"
  />
<missing-glyph 
 />
    <glyph glyph-name=".notdef" 
 />
    <glyph glyph-name=".notdef" 
 />
    <glyph glyph-name=".null" horiz-adv-x="0" 
 />
    <glyph glyph-name="nonmarkingreturn" horiz-adv-x="341" 
 />
    <glyph glyph-name="x" unicode="x" horiz-adv-x="1001" 
d="M281 543q-27 -1 -53 -1h-83q-18 0 -36.5 -6t-32.5 -18.5t-23 -32t-9 -45.5v-76h912v41q0 16 -0.5 30t-0.5 18q0 13 -5 29t-17 29.5t-31.5 22.5t-49.5 9h-133v-97h-438v97zM955 310v-52q0 -23 0.5 -52t0.5 -58t-10.5 -47.5t-26 -30t-33 -16t-31.5 -4.5q-14 -1 -29.5 -0.5
t-29.5 0.5h-32l-45 128h-439l-44 -128h-29h-34q-20 0 -45 1q-25 0 -41 9.5t-25.5 23t-13.5 29.5t-4 30v167h911zM163 247q-12 0 -21 -8.5t-9 -21.5t9 -21.5t21 -8.5q13 0 22 8.5t9 21.5t-9 21.5t-22 8.5zM316 123q-8 -26 -14 -48q-5 -19 -10.5 -37t-7.5 -25t-3 -15t1 -14.5
t9.5 -10.5t21.5 -4h37h67h81h80h64h36q23 0 34 12t2 38q-5 13 -9.5 30.5t-9.5 34.5q-5 19 -11 39h-368zM336 498v228q0 11 2.5 23t10 21.5t20.5 15.5t34 6h188q31 0 51.5 -14.5t20.5 -52.5v-227h-327z" />
    <glyph glyph-name="dingyue" unicode="&#xe617;" horiz-adv-x="1000" 
d="M951 -120l1 20q0 116 -31 227t-86 204.5t-134 172.5t-173 134.5t-204.5 86t-227.5 30.5h-20v-139q150 0 286.5 -58.5t235 -157t156.5 -234.5t58 -286h139zM633 -120v20q0 109 -42.5 208.5t-114.5 171.5t-171.5 114.5t-208.5 42.5l-20 -1v-138q114 0 210 -56t152 -152.5
t56 -209.5h139zM76 -0.5q0 -49.5 35 -84.5t84.5 -35t84.5 35t35 84.5t-35 84.5t-84.5 35t-84.5 -35t-35 -84.5z" />
    <glyph glyph-name="user" unicode="&#xc627;" horiz-adv-x="1000" 
d="M561 345q72 26 122 105.5t50 159.5q0 91 -66 154.5t-159 63.5t-159 -63.5t-66 -154.5q0 -78 48.5 -157t119.5 -106q-73 -5 -133 -24.5t-100 -47.5t-70.5 -65t-47 -72t-27 -72.5t-13.5 -63t-3 -47.5q0 -1 81 -1t206 0.5t164 0.5q422 0 422 1q0 30 -3 59t-12.5 66.5
t-25.5 70.5t-44.5 66.5t-66 59t-93.5 43.5t-124 24zM339 610q0 68 49.5 116t119.5 48t119.5 -48t49.5 -116q0 -46 -22 -96.5t-62.5 -86.5t-84.5 -36t-84.5 36t-62.5 86.5t-22 96.5zM493.5 -1q-26.5 0 -136 -1t-183.5 -1t-74 2q0 54 15.5 99t40 76t58.5 55t69.5 38t75 22.5
t71.5 11.5t63.5 3t63.5 -3t71.5 -11.5t75 -22.5t69.5 -38t58.5 -55t40 -76t15.5 -99q0 -1 -74 -1t-183.5 0.5t-136 0.5z" />
    <glyph glyph-name="fujian" unicode="&#xe60d;" 
d="M932 460v0l-370 366q-10 9 -24 9t-23.5 -9.5t-9.5 -23t10 -23.5l373 -368v-1q70 -71 69 -170t-72 -169q-72 -70 -173.5 -70t-173.5 70v0v0l-425 420v0q-46 45 -46 109t45.5 109t110.5 45t110 -45v0v0l440 -434l1 -1h1q19 -20 19 -47t-19.5 -46.5t-47 -19.5t-47.5 19v0
q-1 1 -1 2l-318 313q-10 10 -24 10t-23.5 -9.5t-9.5 -23.5t9 -23l318 -314q1 -1 2 -1q39 -39 94.5 -39t94.5 38.5t39 93.5t-39 93v0l-1 1l-440 435v0h-1v0l-7 8l-6 4q-65 55 -152.5 52t-149.5 -64t-65 -147.5t53 -150.5l4 -6l8 -7v0v0l426 -420l2 -2q91 -89 219.5 -88.5
t219.5 90.5q92 90 92 217.5t-92 217.5z" />
    <glyph glyph-name="search" unicode="&#xe606;" 
d="M455.5 91q-95.5 0 -177 47.5t-129 129t-47.5 177t47.5 177t129 129t177 47.5t177 -47.5t129 -129t47.5 -177t-47.5 -177t-129 -129t-177 -47.5zM455.5 711q-110.5 0 -188.5 -78t-78 -188.5t78 -188.5t188.5 -78t188.5 78t78 188.5t-78 188.5t-188.5 78zM868 -22
q-22 0 -38 16l-184 184q-16 16 -16 38t15.5 38t38 16t38.5 -16l184 -185q16 -15 16 -37.5t-16 -38t-38 -15.5v0z" />
    <glyph glyph-name="guide" unicode="&#xc62c;" 
d="M556 -50h-3q-9 2 -15.5 8t-7.5 15l-53 377l-376 53q-9 1 -15.5 7.5t-7.5 15.5q-3 20 16 28l812 362q17 7 30 -6t6 -30l-361 -814q-7 -16 -25 -16v0zM202 443l303 -42q9 -2 15 -8t8 -15l42 -303l294 662z" />
    <glyph glyph-name="search-plus" unicode="&#xe643;" 
d="M942 -10l-289 291q82 97 76.5 226.5t-95.5 220.5q-96 97 -232 97t-232 -97q-63 -63 -85.5 -148.5t0 -171t85.5 -148.5q96 -97 232 -97q121 0 213 79l288 -291q8 -8 19.5 -8t19.5 8t8 19.5t-8 19.5zM595 298.5q-80 -80.5 -193 -80.5t-193 80.5t-80 195.5t80 195.5
t193 80.5t193 -80.5t80 -195.5t-80 -195.5zM540 522h-103v104q0 11 -8 19t-19.5 8t-19.5 -8t-8 -19v-104h-103q-11 0 -19 -8t-8 -19.5t8 -19.5t19 -8h103v-103q0 -12 8 -20t19.5 -8t19.5 8t8 20v103h103q11 0 19 8t8 19.5t-8 19.5t-19 8z" />
    <glyph glyph-name="tingzhi" unicode="&#xe648;" 
d="M889 -56h-754q-26 0 -44.5 18.5t-18.5 44.5v754q0 26 18.5 44.5t44.5 18.5h754q26 0 44.5 -18.5t18.5 -44.5v-754q0 -26 -18.5 -44.5t-44.5 -18.5zM889 730q0 13 -9 22t-22 9h-692q-13 0 -22 -9t-9 -22v-692q0 -13 9 -22t22 -9h692q13 0 22 9t9 22v692z" />
    <glyph glyph-name="smile" unicode="&#xc62d;" 
d="M369.5 461q19.5 0 33.5 14t14 33.5t-14 33.5t-33.5 14t-33.5 -14t-14 -33.5t14 -33.5t33.5 -14zM654.5 461q19.5 0 33.5 14t14 33.5t-14 33.5t-33.5 14t-33.5 -14t-14 -33.5t14 -33.5t33.5 -14zM512 822q-89 0 -170 -34.5t-139.5 -93t-93 -139.5t-34.5 -170t34.5 -170
t93 -139.5t139.5 -93.5t170 -35t170 35t139.5 93.5t93 139.5t35 170t-34.5 170t-93.5 139.5t-139.5 93t-170 34.5zM512 -15q-109 0 -201 53.5t-145 145.5t-53 200.5t53 200.5t145 145.5t201 53.5t201 -53.5t145 -145.5t53 -200.5t-53 -200.5t-145 -145.5t-201 -53.5z
M721 385q-8 0 -13.5 -5.5t-5.5 -13.5q0 -79 -55.5 -135t-134.5 -56t-134.5 56t-55.5 135q0 8 -5.5 13.5t-13.5 5.5t-13.5 -5.5t-5.5 -13.5q0 -95 66.5 -162t161.5 -67t161.5 67t66.5 162q0 8 -5.5 13.5t-13.5 5.5z" />
    <glyph glyph-name="table" unicode="&#xe609;" 
d="M514 776h385q33 0 46.5 -13t13.5 -46v-664q0 -33 -13 -46t-46 -13h-778q-31 0 -44 13t-13 44v670q0 29 13 42t43 13h393zM345 203h-222v-151h222v151zM622 51v151h-220v-151h220zM678 52h222v150h-222v-150zM124 405v-149h221v149h-221zM678 254h212q3 0 7 4t4 6v140
h-223v-150zM401 255h222v149h-222v-149zM345 456v151h-223q0 -110 1 -136q0 -4 5 -9t9 -5q46 -1 208 -1zM401 458h221v149h-221v-149zM900 458v149h-221v-149h221z" />
    <glyph glyph-name="qq" unicode="&#xe618;" 
d="M200 344l-2 6l-1 6l-1 4v5v5v5l1 6l2 7l2 6l3 8l4 8l5 7v6l1 5l1 7l2 7l2 9l2 4l2 3l2 4l3 3v5v7v7l2 10l1 11l3 14l4 14l3 8l3 9l3 8l4 8l4 9l4 9l6 9l6 10l3 5l3 4l7 10l7 10l8 10l8 10l10 10l9 10l12 10l7 7l9 7l10 6l10 6l9 5l11 5l11 5l12 4l11 4l12 4l12 2l13 3
l13 2l13 2l13 1l14 1h13h13h14l14 -1l13 -2l14 -2l13 -3l13 -3l13 -3l14 -4l13 -4l12 -5l13 -6l12 -6l12 -6l11 -8l10 -6l4 -4l5 -3l9 -8l8 -7l7 -8l8 -8l6 -9l7 -8l5 -9l5 -8l6 -10l4 -8l8 -17l4 -9l3 -9l3 -9l2 -8l2 -8l2 -8l5 -16l2 -13l2 -13l1 -10l3 -16v-3l2 -3l5 -8
l3 -6l3 -5l4 -7l3 -7l2 -8l3 -8l1 -9l1 -4l1 -5v-5l-1 -4v-6l-1 -5l-3 -11l-2 -5l-2 -6v-2l1 -1l2 -5l12 -17l10 -14l4 -9l6 -9l6 -11l6 -11l6 -13l7 -15l4 -8l3 -9l3 -9l3 -8l3 -9l2 -8l3 -16l2 -16l2 -14v-8v-7v-6l-1 -7l-2 -12l-2 -11l-3 -10l-1 -5l-3 -4l-2 -4l-2 -4
l-3 -3l-2 -3l-3 -3l-3 -2l-3 -2l-3 -1l-2 -1h-2h-2l-2 1l-5 2l-2 1l-2 2l-3 2l-2 3l-4 4l-5 6l-3 6l-4 6l-4 6l-5 10l-5 11l-1 1h-1l-2 -2l-2 -3l-2 -4l-4 -10l-6 -16l-7 -18l-6 -9l-6 -10l-7 -10l-7 -11l-4 -5l-5 -5l-10 -10l1 -1l1 -2l5 -3l23 -10l9 -6l9 -5l10 -7l8 -7
l4 -3l3 -3l3 -5l2 -4l1 -4l2 -4l1 -4l1 -5l-1 -3v-3l-1 -3l-2 -3v-2l-2 -3l-4 -5l-3 -5l-3 -3l-3 -2l-6 -5l-7 -4l-7 -4l-8 -3l-9 -3l-5 -2l-4 -1l-10 -3l-11 -2l-10 -2l-12 -2h-12l-12 -2h-12h-13h-13l-14 1l-12 1l-14 2l-14 1l-14 2l-14 4l-13 3l-14 3l-14 5l-13 4l-7 3
l-7 2l-4 2h-4h-5h-6l-13 1l-7 1l-8 1l-6 -5l-7 -5l-10 -5l-11 -6l-7 -3l-7 -3l-16 -6l-8 -2l-9 -3l-13 -2l-7 -1h-8l-9 -1l-10 -1h-9h-10h-22l-22 1l-23 2l-11 2l-11 1l-10 2l-11 2l-10 3l-10 2l-9 4l-8 3l-8 4l-7 4l-6 5l-3 2l-3 3l-2 3l-2 3l-2 3l-1 3l-2 6l-1 3l-1 4v3
l1 4v3l1 4v2v6v4l2 4l1 5l3 5l2 2l1 3l5 5l3 2l3 2l3 3l5 1l3 2l5 3l5 1l6 2l6 1l6 1l6 1l8 1h2v0l1 1v1l-1 2l-4 2l-10 8l-7 6l-7 6l-8 8l-8 10l-10 10l-3 6l-5 6l-4 7l-3 8l-5 7l-3 9l-4 8l-4 9l-2 9l-3 11l-1 1h-1v1h-1l-1 -1l-1 -1l-1 -2l-1 -2l-1 -2l-1 -3l-5 -8l-2 -5
l-4 -4l-4 -5l-4 -6l-5 -5l-5 -5l-5 -5l-6 -3l-6 -4l-6 -2l-7 -2l-6 -1h-1h-1l-1 1l-2 2l-2 2l-2 6l-2 4l-2 4l-1 6l-1 5l-2 11l-1 7v7v15l1 17l1 8l2 9l1 10l3 8l3 10l3 10l4 10l3 10l6 10l4 10l6 10l7 11l7 10l7 11l7 7l7 9l9 8l3 4l5 5l7 6l7 6l11 10l9 6z" />
    <glyph glyph-name="full" unicode="&#xc634;" 
d="M660 487l233 233l-1 -132q0 -9 6 -15t14 -6h14q8 1 14 5.5t6 12.5l1 197v10q0 9 -5 14q-6 6 -14 6h-10v-1l-195 1q-8 0 -14 -6t-6 -14v-14q1 -10 7.5 -15.5t15.5 -4.5l128 -1l-233 -232q-8 -8 -8 -19t8 -19t19.5 -8t19.5 8v0zM365 268l-233 -232v131q1 8 -5 14t-14 6h-15
q-8 0 -14 -5t-6 -13l-1 -196v-11q0 -9 5 -14q6 -6 14 -5h10v0l196 -1q8 0 14 6t6 15v14q-1 9 -7.5 14.5t-15.5 5.5h-128l232 232q8 8 8 19.5t-7.5 19.5t-19 8t-19.5 -8v0zM947 -27l-1 196q0 8 -6 13t-14 5h-14q-8 0 -14 -6t-6 -14l1 -132l-233 233q-8 7 -19.5 7t-19.5 -7.5
t-8 -19t8 -19.5l233 -232h-128q-9 0 -15.5 -5.5t-7.5 -14.5v-14q0 -9 6 -15t14 -6l195 1v0h10q9 -1 14 5q5 5 5 14v11v0v0zM171 757l128 1q9 -1 15.5 4.5t7.5 15.5v14q0 8 -6 14t-14 6l-196 -1v1h-10q-9 0 -14 -6q-5 -5 -5 -14v-10l1 -197q0 -8 6 -12.5t14 -5.5h15
q8 0 13.5 6t5.5 15v131l233 -232q8 -8 19.5 -8t19.5 8t8 19t-8 19zM171 757z" />
    <glyph glyph-name="rss" unicode="&#xe631;" 
d="M143.5 102q-35.5 0 -61 -25.5t-25.5 -61t25.5 -61t61 -25.5t61 25.5t25.5 61t-25.5 61t-61 25.5zM143 -40q-23 0 -39 16t-16 39t16 39t39 16t39 -16t16 -39t-16 -39t-39 -16zM104 839q-21 0 -47 -1v-32q26 2 47 2q113 0 220.5 -30t199 -83.5t168.5 -130.5t130.5 -168.5
t83.5 -199t30 -220.5q0 -21 -2 -47h32q1 26 1 47q0 117 -31 229t-86.5 206.5t-135.5 174.5t-174.5 135.5t-206.5 86.5t-229 31zM73 462h-16v-31h16q98 0 188.5 -38.5t155.5 -103.5t103.5 -155.5t38.5 -188.5v-16h31v16q0 105 -41 201t-110 165t-165 110t-201 41z" />
    <glyph glyph-name="upload" unicode="&#xe645;" 
d="M927 363v-327h-830v327h-30v-356h890v356h-30zM502 705v-485h29v485l174 -174l21 20l-210 210l-209 -210l21 -20z" />
    <glyph glyph-name="top" unicode="&#xe619;" 
d="M887 171l-353 350l-1 0.5l-1 0.5v1q-10 9 -23 9t-22 -10l-350 -353q-10 -9 -10 -22.5t9.5 -22.5t23 -9t22.5 9l328 331l332 -330q10 -9 23 -9t22.5 9.5t9.5 23t-10 22.5z" />
    <glyph glyph-name="email" unicode="&#xe61a;" 
d="M1008 -72q0 -13 -9 -22t-22 -9h-930q-13 0 -22 9t-9 22v744v0q0 13 9 22q9 10 23 9h928q14 1 23 -9q9 -9 9 -22v0v-744v0zM78 -10q0 -13 9 -22t22 -9h806q13 0 22 9t9 22v615l-410 -355l-0.5 -1t-1.5 -2q-9 -9 -22 -9t-22 9q-1 1 -1.5 2l-0.5 1l-410 355v-615zM512 310
l382 331h-764z" />
    <glyph glyph-name="right-round" unicode="&#xc621;" 
d="M513.5 840q-92.5 0 -177 -36t-145.5 -97t-97 -145.5t-36 -177t36 -176.5t97 -145t145.5 -97t177 -36t177 36t145.5 97t97 145t36 176.5t-36 177t-97 145.5t-145.5 97t-177 36zM513.5 -34q-113.5 0 -210 56t-152.5 152.5t-56 210t56 210t152.5 152.5t210 56t210 -56
t152.5 -152.5t56 -210t-56 -210t-152.5 -152.5t-210 -56zM741 547l-292 -283l-102 102q-8 8 -19.5 8t-19.5 -8t-8 -19t8 -19l121 -122q8 -8 20 -8q11 0 19 8l311 302q8 8 8.5 19.5t-7.5 19.5t-19.5 8t-19.5 -8z" />
    <glyph glyph-name="time" unicode="&#xe600;" 
d="M950 386q0 89 -35 170t-93.5 140t-139.5 93.5t-170 34.5t-170 -34.5t-140 -93.5t-93.5 -140t-34.5 -170t34.5 -170t93.5 -139.5t140 -93.5t170 -35q145 0 263 90q5 6 5 13q0 8 -5.5 13.5t-13.5 5.5t-14 -6v0q-105 -77 -235 -77q-107 0 -198.5 53t-144.5 144t-53 199
t53 199.5t144.5 144.5t199 53t199 -53t144.5 -144.5t53 -199.5q0 -100 -45 -185v0q-1 -4 -1 -6q0 -8 5.5 -13.5t13.5 -5.5q13 0 18 12v0q50 96 50 201zM507 620q0 9 -6 15t-15 6t-15 -6t-6 -15v-249v-4t2 -10t6 -12.5t12.5 -10t21.5 -4.5h225v0q9 0 15 6t6 14.5t-6 14.5
t-15 6h-225v249v0z" />
    <glyph glyph-name="info" unicode="&#xe607;" 
d="M950 386q0 89 -34.5 170.5t-93 140t-140 93.5t-170.5 35t-170.5 -35t-140 -93.5t-93 -140t-34.5 -170.5t34.5 -170t93 -140t140 -93.5t170.5 -34.5q146 0 264 89q5 6 5 13q0 8 -5.5 14t-13.5 6q-9 0 -15 -6v0q-105 -78 -235 -78q-107 0 -198.5 53t-145 144.5t-53.5 199.5
t53.5 199.5t145 144.5t199 53t199 -53t144.5 -144.5t53 -199.5q0 -100 -45 -185v-1q-1 -3 -1 -5q0 -8 6 -14t14 -6q13 0 18 13v0q49 96 49 201zM539 499q0 9 -6.5 16t-16 7t-16.5 -7t-7 -16v-328q0 -10 7 -16.5t16.5 -6.5t16 6.5t6.5 16.5v0v328v0zM516.5 620
q-9.5 0 -16.5 -7t-7 -16.5t7 -16.5t16.5 -7t16.5 7t7 16.5t-7 16.5t-16.5 7z" />
    <glyph glyph-name="max" unicode="&#xe68e;" 
d="M924 796v-823h-823v823h823zM960 832h-895v-895h895v895z" />
    <glyph glyph-name="down" unicode="&#xc622;" 
d="M534 153l416 417q10 9 10 22.5t-9.5 22.5t-23 9t-22.5 -9l-374 -373v0l-10 -11q-6 -5 -10.5 -4.5t-7.5 2.5l-3 3l-381 381q-9 9 -22.5 9t-23 -9.5t-9.5 -22.5t10 -23l412 -412l1 -1l1 -1q10 -9 23 -9t23 9z" />
    <glyph glyph-name="download" unicode="&#xc623;" 
d="M896 34q0 -14 -10 -24t-24 -10h-701q-14 0 -23.5 10t-9.5 24v0q0 14 9.5 23.5t23.5 9.5h701q14 0 24 -9.5t10 -23.5v0zM512 128q-14 0 -24 10t-10 24v572q0 14 10 24t24 10v0q14 0 23.5 -10t9.5 -24v-572q0 -14 -9.5 -24t-23.5 -10v0zM535 138q-9 -9 -23 -9t-24 9
l-252 252q-10 10 -10 24t10 24v0q10 9 24 9t24 -9l251 -252q10 -10 10 -24t-10 -24v0zM488 138q-10 10 -10 24t10 24l252 252q10 9 23.5 9t23.5 -9v0q10 -10 10 -24t-10 -24l-252 -252q-9 -9 -23 -9t-24 9v0z" />
    <glyph glyph-name="female" unicode="&#xc638;" 
d="M606.5 831q-94.5 0 -174.5 -46.5t-126.5 -126.5t-46.5 -175q0 -127 82 -224l-111 -111l-117 118q-8 8 -19.5 8t-19.5 -8t-8 -19.5t8 -19.5l117 -119l-118 -119q-8 -8 -8 -19.5t8 -19.5t19.5 -8t19.5 8l118 119l119 -120q8 -8 19.5 -8t19.5 8t8 19.5t-8 19.5l-118 120
l110 111q98 -83 226 -83q95 0 175 46.5t126.5 126.5t46.5 174.5t-46.5 174.5t-126.5 126.5t-174.5 46.5zM606 191q-121 0 -206.5 85.5t-85.5 206.5t85.5 207t206.5 86t206.5 -86t85.5 -207t-85.5 -206.5t-206.5 -85.5z" />
    <glyph glyph-name="bold" unicode="&#xe61d;" 
d="M266 700q-1 26 -5 40t-15.5 20t-22 7t-34.5 1h-12h-42q-7 0 -7 24v31v3v3t1.5 2t5.5 1h355q177 0 242 -34q105 -52 105 -170q0 -31 -4 -55t-15.5 -43.5t-23 -32.5t-34 -28t-40 -24t-49.5 -25l4 -2q221 -67 221 -249q0 -50 -30 -105.5t-75 -82.5q-80 -45 -261 -45h-380
q-22 0 -22 7v33q0 7 4.5 15.5t10.5 8.5h66q32 0 41 7t13 37q3 19 3.5 330.5t-0.5 325.5zM384 437q0 -3 76 -3q123 0 173 33q78 54 78 150q0 88 -67 132q-67 43 -187 43q-39 0 -45 -1q-9 -3 -15.5 -9t-6.5 -14q-6 -104 -6 -238v-93zM384 316v-173q0 -89 32 -128t115 -39
q45 0 83 10.5t70 33t50 62.5t18 94q0 73 -36 121t-99 71q-17 5 -33 9t-40 5.5t-32.5 2t-42 0t-35.5 -0.5h-50v-68z" />
    <glyph glyph-name="group" unicode="&#xe601;" 
d="M352 448q-123 0 -193.5 -72t-83.5 -184q-1 -11 -4 -32q-11 -47 -7 -88t24.5 -71t86 -47.5t177.5 -17.5t177.5 17.5t86 47.5t24.5 71t-7 87q-3 22 -4 33q-13 112 -83.5 184t-193.5 72zM950 224q-12 98 -74.5 161t-171.5 63q-63 0 -115 -25q87 -84 103 -224l4 -31
q8 -36 8 -84t-15 -84h6h9q99 0 157.5 15t76.5 41.5t21.5 62.5t-5.5 77q-3 18 -4 28zM352 512q66 0 113 47t47 113t-47 113t-113 47t-113 -47t-47 -113t47 -113t113 -47zM704 512q53 0 90.5 37.5t37.5 90.5t-37.5 90.5t-90.5 37.5t-90.5 -37.5t-37.5 -90.5t37.5 -90.5
t90.5 -37.5z" />
    <glyph glyph-name="minus" unicode="&#xe608;" 
d="M809 402h-594q-10 0 -17.5 7.5t-7.5 17.5t7.5 17.5t17.5 7.5h594q10 0 17.5 -7.5t7.5 -17.5t-7.5 -17.5t-17.5 -7.5z" />
    <glyph glyph-name="italic" unicode="&#xe621;" 
d="M877 841v-80h-122l-304 -745h122v-80h-425v80h121l304 745h-122v80h426z" />
    <glyph glyph-name="strikethrough" unicode="&#xe622;" 
d="M1024 426h-361q-41 17 -93 32l-30 9q-209 63 -209 158q0 61 42.5 97t114.5 36q95 0 158.5 -45t63.5 -111v-2h83v215h-85v-70q-52 44 -107 65.5t-119 21.5q-127 0 -203.5 -71t-76.5 -187q0 -87 50 -141l7 -7h-248v-85h402q9 -4 18 -7q30 -10 80 -26q185 -58 185 -151
q0 -70 -45.5 -110.5t-126.5 -40.5q-98 0 -169 55t-71 129v12h-84v-250h84v87q51 -53 112.5 -78.5t138.5 -25.5q137 0 218.5 74t81.5 195q0 83 -41 137h230v85z" />
    <glyph glyph-name="face" unicode="&#xe602;" horiz-adv-x="1044" 
d="M515 -128q-103 0 -197 38.5t-167 111t-112 166t-39 196.5t39 196.5t112 166t167 111t197.5 38.5t197.5 -38.5t167 -111.5q99 -98 134 -230t0 -264t-134 -230q-73 -73 -167.5 -111.5t-197.5 -38.5v0v0v0zM515 829q-89 0 -171 -33.5t-145.5 -96.5t-97.5 -144.5t-34 -170.5
t34 -170.5t97.5 -144.5t145 -96.5t171.5 -33.5t172 33.5t145 96.5q86 86 116.5 200.5t0 229t-116.5 200.5q-63 63 -145 96.5t-172 33.5v0v0v0zM332 244q3 -4 7.5 -10.5t21.5 -23t36.5 -29t51.5 -23t66.5 -10.5t68 10t56.5 24t41.5 28.5t27.5 23.5l9 10h5t11 -2.5t14 -7
t11 -14.5t5 -24q-3 -4 -9.5 -11.5t-29.5 -27t-49 -34t-69.5 -27t-91 -12.5t-88.5 11.5t-65 28t-41 33t-24 28.5l-7 11q0 2 0.5 5.5t2.5 11.5t5.5 14.5t12.5 11.5t21 5v0v0zM365 549q-26 0 -44.5 -18.5t-18.5 -44.5t18.5 -44.5t45 -18.5t45 18.5t18.5 44.5t-18.5 44.5
t-45.5 18.5v0v0v0zM689 549q-26 0 -44.5 -18.5t-18.5 -44.5t18.5 -44.5t44.5 -18.5t44.5 18.5t18.5 44.5t-18.5 44.5t-44.5 18.5v0v0v0z" />
    <glyph glyph-name="page-break" unicode="&#xe646;" 
d="M81 387h108v-54h-108v54zM243 387h162v-54h-162v54zM459 387h108v-54h-108v54zM621 387h162v-54h-162v54zM837 387h108v-54h-108v54zM836 819l1 -378h-648l-1 378h55v-324h540v324h53zM188 -44l1 323h647v-324h-54l1 270h-540v-269h-55v0z" />
    <glyph glyph-name="dot" unicode="&#xe60c;" 
d="M330 384q0 -76 53 -129t129 -53t129 53t53 129t-53 129t-129 53t-129 -53t-53 -129z" />
    <glyph glyph-name="male" unicode="&#xc62e;" 
d="M928 832h-256q-13 0 -22.5 -9.5t-9.5 -22.5t9.5 -22.5t22.5 -9.5h181l-211 -210q-98 82 -226 82q-96 0 -177 -47t-128 -128t-47 -177t47 -177t128 -128t177 -47t177 47t128 128t47 177q0 127 -81 224l209 209v-177q0 -13 9.5 -22.5t22.5 -9.5t22.5 9.5t9.5 22.5v256
q0 13 -9.5 22.5t-22.5 9.5zM416 0q-119 0 -203.5 84.5t-84.5 203.5t84.5 203.5t203.5 84.5t203.5 -84.5t84.5 -203.5t-84.5 -203.5t-203.5 -84.5v0z" />
    <glyph glyph-name="align-left" unicode="&#xe623;" 
d="M16 735h985v-70h-985v70zM16 311h985v-70h-985v70zM19 523h685v-70h-685v70zM16 105h682v-69h-682v69z" />
    <glyph glyph-name="pi" unicode="&#xe647;" 
d="M630 698h-208q-15 -181 -29.5 -296.5t-27.5 -198.5q-14 -83 -28 -152q-12 -53 -34.5 -83t-66.5 -42q-36 -9 -71.5 14.5t-42.5 55.5q-5 25 -2.5 41.5t9.5 31t16 26t19 23.5q3 3 31.5 36.5t42.5 61t18 60.5l54 422h-87q-37 0 -70.5 -17.5t-51.5 -40.5l-38 -58h-32
q12 35 32 84q18 49 52 95q26 39 70 67t103 28h687v-158h-232q-23 -215 -23 -433q0 -39 13.5 -77t33.5 -58q25 -23 61.5 -30t74.5 23q21 16 30.5 37t11.5 40q3 18 6 37h38q-1 -74 -22.5 -134t-51 -96.5t-58.5 -52.5q-32 -20 -75.5 -24t-79.5 20q-59 44 -90 136
q-17 54 -19 142.5t6 173.5z" />
    <glyph glyph-name="pinglun" unicode="&#xe61b;" 
d="M286.5 435q-23.5 0 -40 -17t-16.5 -41t16.5 -41t40 -17t39.5 17t16 41t-16 41t-39.5 17zM511 435q-23 0 -39.5 -17t-16.5 -41t16.5 -41t39.5 -17t39.5 17t16.5 41t-16.5 41t-39.5 17zM735.5 435q-23.5 0 -40 -17t-16.5 -41t16.5 -41t40 -17t40 17t16.5 41t-16.5 41
t-40 17zM848 726h-674q-47 0 -79.5 -34t-32.5 -82v-437q0 -49 34 -86.5t81 -37.5h171l153 -159q10 -11 20 0q90 102 149 159h175q47 0 81 37.5t34 86.5v437q0 48 -33 82t-79 34zM904 173q0 -25 -17.5 -45.5t-41.5 -20.5h-172q-9 0 -19 -5.5t-15 -10.5l-5 -6l-121 -125
l-121 125q-23 22 -43 22h-172q-24 0 -41.5 20.5t-17.5 45.5v437q0 24 16.5 41t39.5 17h674q23 0 39.5 -17t16.5 -41v-437z" />
    <glyph glyph-name="photo" unicode="&#xe603;" 
d="M873 776h-724q-35 0 -59.5 -24.5t-24.5 -59.5v-613q0 -35 24.5 -59.5t59.5 -24.5h724q35 0 59.5 24.5t24.5 59.5v613q0 35 -24.5 59.5t-59.5 24.5v0zM149 720h724q12 0 20 -8.5t8 -19.5v-328q-105 86 -216 86q-31 0 -62.5 -10t-67.5 -32.5t-59 -39.5t-64 -49
q-42 -33 -65 -50t-55 -34t-54 -17q-70 0 -137 65v409q0 11 8 19.5t20 8.5v0zM873 51h-724q-12 0 -20 8t-8 20v132q68 -48 137 -48q24 0 48.5 8t54.5 27.5t49.5 33.5t55.5 43q38 30 58.5 45t52.5 35.5t58 30t50 9.5q34 0 68.5 -11.5t58.5 -25.5t47 -32t30.5 -26t11.5 -12v0
v-209q0 -12 -8 -20t-20 -8v0zM344 385q46 0 78.5 33t32.5 79t-32.5 78.5t-79 32.5t-79 -32.5t-32.5 -78.5t32.5 -79t79.5 -33v0zM344 553q23 0 39.5 -16.5t16.5 -39.5t-16.5 -39.5t-39.5 -16.5t-39.5 16.5t-16.5 39.5t16.5 39.5t39.5 16.5v0zM344 553z" />
    <glyph glyph-name="font" unicode="&#xe638;" 
d="M451 493l-97 -258q19 0 78 -1t91 -1q11 0 33 1q-50 145 -105 259zM37 -139l1 45q13 4 32 7.5t32.5 6t28 8t25.5 16.5t18 29l135 352l160 414h73q5 -8 7 -12l117 -274q19 -45 60.5 -147.5t64.5 -156.5q9 -20 33.5 -83t41.5 -96q11 -26 20 -33q11 -8 50 -16.5t48 -11.5
q3 -22 3 -33q0 -2 3 -7.5t3 -7.5q-36 0 -108.5 4.5t-109.5 4.5q-43 0 -122.5 -4t-101.5 -4q0 24 2 44l75 16q1 0 7.5 1.5t8.5 2t8 2.5t8.5 4t6.5 4.5t5.5 6t1.5 8.5q0 9 -18 55t-41.5 101.5t-23.5 57.5l-257 1q-15 -33 -44 -112t-29 -93q0 -12 8 -21t25 -14t28 -8t32.5 -5
t23.5 -2v-33q0 -5 -1 -16q-33 0 -99.5 6t-99.5 6q-5 0 -15.5 -2.5t-12.5 -2.5q-45 -8 -107 -8h-6z" />
    <glyph glyph-name="link" unicode="&#xe624;" 
d="M940 692l-120 120q-16 16 -39.5 16t-39.5 -16l-236 -237q-6 -6 -6 -14.5t6 -14.5t14.5 -6t14.5 6v0l217 216q16 16 29.5 16t29.5 -16l80 -80q16 -16 16 -29.5t-16 -29.5l-290 -291q-17 -16 -30.5 -16t-29.5 16l-60 60q-6 6 -14.5 6t-15 -6t-6.5 -15t6 -15l80 -79
q17 -17 40 -17t40 17l330 330q16 16 16 39.5t-16 39.5zM533 206q6 6 6 14.5t-6 14.5t-14.5 6.5t-15.5 -5.5v0l-230 -230q-16 -16 -29.5 -16t-29.5 16l-80 80q-16 16 -16 29.5t16 29.5l304 304q17 17 30 17t30 -17l59 -59v0q15 -13 29 0.5t1 28.5v0l-79 80q-17 16 -40 16
t-40 -16l-344 -344q-16 -16 -16 -39.5t16 -39.5l120 -120q16 -16 39.5 -16t39.5 16z" />
    <glyph glyph-name="iconfont67" unicode="&#xe649;" 
d="M304 -128q0 -13 9.5 -22.5t22.5 -9.5h16q13 0 22.5 9.5t9.5 22.5v832q0 13 -9.5 22.5t-22.5 9.5h-16q-13 0 -22.5 -9.5t-9.5 -22.5v-832zM640 -128q0 -13 9.5 -22.5t22.5 -9.5h16q13 0 22.5 9.5t9.5 22.5v832q0 13 -9.5 22.5t-22.5 9.5h-16q-13 0 -22.5 -9.5t-9.5 -22.5
v-832z" />
    <glyph glyph-name="link1" unicode="&#xc62f;" 
d="M556 449q-7 7 -16 7t-15.5 -6.5t-6.5 -16t6 -15.5l22 -22q36 -36 36 -87t-36 -87l-208 -208q-36 -37 -87.5 -37t-87.5 37l-21 21q-37 36 -37 87.5t37 87.5l169 170q7 6 7 15.5t-6.5 16t-15.5 6.5t-16 -7l-170 -170q-49 -49 -49 -118.5t49 -118.5l22 -22q49 -49 118.5 -49
t118.5 49l208 208q49 49 49 119t-49 119zM914 764l-22 22q-49 49 -118.5 49t-118.5 -49l-208 -208q-49 -49 -49 -118.5t49 -119.5l21 -21q7 -7 16 -7t15.5 6.5t6.5 16t-6 15.5l-22 22q-36 36 -36 87t36 88l208 207q36 36 87.5 36t87.5 -36l21 -21q36 -36 36 -87.5t-36 -87.5
l-169 -170q-7 -6 -7 -15.5t6.5 -16t15.5 -6.5t16 7l170 170q49 49 49 118.5t-49 118.5z" />
    <glyph glyph-name="image" unicode="&#xe625;" 
d="M317 462q32 0 55 23t23 55t-23 55t-55 23t-55 -23t-23 -55t23 -55t55 -23zM668 511l-231 -326l-120 166l-195 -279h780zM980 833h-936q-16 0 -27.5 -11.5t-11.5 -27.5v-820q0 -16 11.5 -27.5t27.5 -11.5h936q16 0 27.5 11.5t11.5 27.5v820q0 16 -11.5 27.5t-27.5 11.5z
M941 13h-858v742h858v-742z" />
    <glyph glyph-name="add" unicode="&#xe64c;" 
d="M512 805zM483 805v-41v-106v-148v-166v-160v-131v-76v-11q0 -12 8.5 -20.5t20.5 -8.5t20.5 8.5t8.5 20.5v40v107v148v166v160v130v77v11q0 11 -8.5 19.5t-20.5 8.5t-20.5 -8.5t-8.5 -19.5v0zM932 385zM932 414h-41h-106h-148h-166h-161h-130h-77h-11q-11 0 -19.5 -8.5
t-8.5 -20t8.5 -20t19.5 -8.5h41h106h148h166h161h130h77h11q11 0 19.5 8.5t8.5 20t-8.5 20t-19.5 8.5v0z" />
    <glyph glyph-name="video" unicode="&#xe626;" 
d="M929 646q-247 -197 -267 -222v191q0 16 -11 27t-27 11h-524q-15 0 -26 -11t-11 -27v-462q0 -16 11 -27t26 -11h524q16 0 27 11t11 27v189q20 -22 267 -223h14t9 2t5.5 3t2.5 6.5t1 8v11.5v15v430v14.5v12.5t-1 9t-2.5 7.5t-5 4t-9 3t-14.5 0.5z" />
    <glyph glyph-name="question-round" unicode="&#xc626;" 
d="M949 384q0 89 -35 169.5t-93 139t-139 93.5t-170 35t-170 -35t-139 -93t-93 -139t-35 -170t35 -170t93 -139t139 -93t170 -35q145 0 263 90q5 5 5 12q0 8 -5.5 14t-13.5 6q-9 0 -14 -6h-1q-105 -78 -234 -78q-107 0 -198 53t-144 144.5t-53 198.5t53 198t144 144
t198.5 53t198.5 -52.5t144 -144t53 -198.5q0 -100 -45 -185v0q-1 -4 -1 -6q0 -8 5.5 -13.5t13.5 -5.5q13 0 18 13v0q50 95 50 200zM462 161v0q0 -14 10 -24t24.5 -10t24.5 10t10 24v0q0 14 -10 24.5t-24.5 10.5t-24.5 -10.5t-10 -24.5zM580 379q22 11 34 18.5t29.5 22.5
t25.5 35t8 46q0 62 -49 101.5t-126 39.5q-56 0 -101.5 -29.5t-62.5 -77.5q-12 -32 -6 -59q3 -9 11 -14.5t17 -3t14 10.5t3 17q-3 15 4 34q11 31 43.5 53.5t77.5 22.5q57 0 93 -26.5t36 -68.5q0 -30 -16.5 -45.5t-55.5 -35.5q-19 -10 -30 -16.5t-26.5 -19t-22.5 -29.5t-7 -38
v-57q0 -9 7 -16t16.5 -7t16 7t6.5 16v57q0 21 13.5 33t47.5 29z" />
    <glyph glyph-name="quote-right" unicode="&#xe63f;" 
d="M352 736h-128q-53 0 -90.5 -37.5t-37.5 -90.5v-128q0 -53 37.5 -90.5t90.5 -37.5h128q0 -79 -56 -135.5t-136 -56.5q-27 0 -45.5 -18.5t-18.5 -45.5t18.5 -45.5t45.5 -18.5q133 0 226.5 93.5t93.5 226.5v256q0 53 -37.5 90.5t-90.5 37.5zM864 736h-128q-53 0 -90.5 -37.5
t-37.5 -90.5v-128q0 -53 37.5 -90.5t90.5 -37.5h128q0 -79 -56.5 -135.5t-135.5 -56.5q-27 0 -45.5 -18.5t-18.5 -45.5t18.5 -45.5t45.5 -18.5q133 0 226.5 93.5t93.5 226.5v256q0 53 -37.5 90.5t-90.5 37.5z" />
    <glyph glyph-name="message" unicode="&#xe604;" horiz-adv-x="1025" 
d="M512 896q-104 0 -199 -35.5t-163.5 -95t-109 -142t-40.5 -173.5q0 -89 38.5 -169.5t107.5 -142.5q24 -21 115.5 -87.5t171.5 -122.5l79 -56v132q104 0 199 35.5t163.5 95t109 142t40.5 173.5t-40.5 173.5t-109 142t-163.5 95t-199 35.5zM259 382q-28 0 -48 19t-20 46.5
t20 47t48 19.5t48 -19.5t20 -47t-20 -46.5t-48 -19zM514 382q-28 0 -48 19t-20 46.5t20 47t48 19.5t48 -19.5t20 -47t-20 -46.5t-48 -19zM771 382q-28 0 -48 19t-20 46.5t20 47t48 19.5t48 -19.5t20 -47t-20 -46.5t-48 -19z" />
    <glyph glyph-name="redo" unicode="&#xe627;" 
d="M515 -51q-68 0 -134 21q-84 27 -151 85q-64 55 -102.5 131t-45.5 161q-8 87 19.5 171t84.5 151q56 64 131.5 102.5t160.5 45.5q87 8 171 -19q96 -31 168 -96q71 -64 106 -150q5 -11 0.5 -22.5t-16 -16.5t-23 0t-16.5 16q-31 75 -93 130t-144 82q-148 48 -287 -23
q-67 -34 -115 -90.5t-71 -127.5q-25 -74 -17 -148.5t39.5 -138t89 -113.5t129.5 -73q125 -41 249.5 6.5t190.5 161.5q7 10 18.5 13.5t22.5 -3t14 -18.5t-3 -22q-37 -64 -93.5 -112t-125 -74.5t-142.5 -29.5h-15v0zM901 502h-206q-13 0 -21.5 9t-8.5 21t9 21t21 9h206
q13 0 21.5 -9t8.5 -21t-8.5 -21t-21.5 -9v0zM914 502q-12 0 -21 9t-9 21v206q0 13 9 21.5t21.5 8.5t21 -8.5t8.5 -21.5v-206q0 -12 -8.5 -21t-21.5 -9v0zM914 502z" />
    <glyph glyph-name="frown" unicode="&#xc63e;" 
d="M512 -71q-93 0 -177 36t-145 97t-97 145t-36 177t36 177t97 145t145 97t177 36t177 -36t145 -97t97 -145t36 -177t-36 -177t-97 -145t-145 -97t-177 -36v0zM512 804q-114 0 -211 -56t-153 -153t-56 -211t56 -211t153 -153t211 -56t211 56t153 153t56 211t-56 211
t-153 153t-211 56v0zM303 190v33q12 7 32 17t76.5 27.5t104.5 17.5q47 0 98.5 -15.5t78.5 -31.5l28 -15v-33q-11 7 -30.5 17t-73.5 27.5t-101 17.5q-49 0 -102 -16.5t-82 -32.5l-29 -16v3zM638 401q-25 0 -43.5 30.5t-18.5 73t18.5 73t44 30.5t43.5 -30.5t18 -73t-18 -73
t-44 -30.5v0zM392 401q-26 0 -44 30.5t-18 73t18 73t44 30.5t44 -30.5t18 -73t-18 -73t-44 -30.5v0zM392 401z" />
    <glyph glyph-name="volume" unicode="&#xe61c;" horiz-adv-x="1131" 
d="M876 -31q-6 -3 -12 -3q-24 0 -32 23q-5 13 1 26t19 18q77 29 124.5 97.5t47.5 151.5t-47.5 152t-124.5 97q-13 5 -19 18t-1 26t17.5 19t26.5 1q97 -36 156.5 -122.5t59.5 -190.5t-59.5 -190.5t-156.5 -122.5zM921 282q0 -66 -41.5 -117t-105.5 -64h-7q-12 0 -21.5 7.5
t-11.5 19.5q-3 14 5 26t21 14q41 8 67 40.5t26 73.5q0 44 -25.5 75.5t-65.5 38.5q-14 2 -22.5 13.5t-6 25.5t14 22.5t25.5 5.5q64 -10 106 -61.5t42 -119.5zM629 -188q-8 -4 -16 -4q-11 0 -19 6l-341 270h-114q-43 0 -74 27t-31 65l-2 225q0 38 31 65t74 27h114l343 269
q17 11 35 1.5t18 -29.5v-892q0 -20 -18 -30v0zM579 670l-298 -239q-9 -6 -19 -6h-125q-15 0 -26 -7.5t-11 -16.5l2 -225q0 -9 11 -16.5t26 -7.5h124q11 0 20 -6l296 -239v763z" />
    <glyph glyph-name="code" unicode="&#xe628;" 
d="M256 44q-11 0 -18 7l-205 205q-7 8 -7 18.5t7 17.5l205 205q7 8 18 8t18.5 -7.5t7.5 -18t-8 -18.5l-187 -187l187 -186q8 -8 8 -18.5t-7.5 -18t-18.5 -7.5v0zM768 44q-11 0 -18.5 7.5t-7.5 18t8 18.5l187 186l-187 187q-8 8 -8 18.5t7.5 18t18.5 7.5t18 -8l205 -205
q7 -7 7 -17.5t-7 -18.5l-205 -205q-7 -7 -18 -7v0zM384 44q-7 0 -14 4q-9 5 -11 15.5t3 19.5l256 410q6 9 16.5 11.5t19.5 -3.5t11 -16t-3 -19l-256 -410q-8 -12 -22 -12z" />
    <glyph glyph-name="skin" unicode="&#xe60a;" 
d="M1004 453l-137 -122q-24 -20 -54 -8v-4v-314q0 -33 -23 -56t-56 -23h-444q-33 0 -56 23t-23 56v314v5q-31 -14 -55 8l-136 122q-17 14 -18 36t13 38l257 300q7 8 18 13v0v1h53q6 -66 54 -111.5t115 -45.5t115 45.5t54 111.5h53v-2q4 -2 15 -15l260 -299q14 -16 13 -37.5
t-18 -35.5v0zM964 516l-238 269q-19 -67 -74.5 -109.5t-126.5 -42.5h-26q-72 0 -128.5 44.5t-74.5 112.5l-236 -272q-7 -9 -6.5 -19.5t8.5 -18.5l114 -102q8 -7 18 -7t17 7v46q0 11 7.5 18.5t18.5 7.5q16 0 24 -15l2 -11v0v-47v-58v-52v-236q0 -22 15.5 -37t37.5 -15h392
q22 0 37.5 15t15.5 37v236v52v54v51v0l1 8q6 18 25 18q11 0 18.5 -7.5t7.5 -18.5v-48q17 -13 33 0l116 103q8 7 8.5 18t-6.5 19v0zM964 516z" />
    <glyph glyph-name="unlink" unicode="&#xe629;" 
d="M713 329q-11 0 -18.5 7t-7.5 18t7 18l157 157q41 41 41 97.5t-40.5 97t-97.5 40.5t-97 -41l-157 -157q-7 -7 -18 -7t-18 7.5t-7 18t7 18.5l157 157q55 55 133.5 55t133.5 -55.5t55 -133.5t-55 -133l-157 -157q-8 -8 -19 -8zM261 -55q-78 0 -133 55t-55 133t55 133
l157 157q7 8 18 8t18 -7.5t7 -18t-7 -18.5l-157 -157q-40 -40 -40 -97t40 -97t97 -40t97 40l157 157q8 7 18.5 7t18 -7t7.5 -18t-8 -18l-157 -157q-55 -55 -133 -55v0zM303 559q-11 0 -18 7l-103 103q-7 7 -7 18t7.5 18t18 7t18.5 -7l102 -102q7 -8 7 -18.5t-7 -18t-18 -7.5
v0zM405.5 610q-10.5 0 -18 7.5t-7.5 18.5v153q0 11 7.5 18.5t18 7.5t18 -7.5t7.5 -18.5v-153q0 -11 -7.5 -18.5t-18 -7.5zM252 457h-154q-10 0 -17.5 7.5t-7.5 18t7.5 18t17.5 7.5h154q10 0 17.5 -7.5t7.5 -18t-7.5 -18t-17.5 -7.5zM815 47q-11 0 -18 7l-103 103q-7 7 -7 18
t7.5 18t18 7t18.5 -7l102 -102q7 -8 7 -18.5t-7 -18t-18 -7.5v0zM917 252h-153q-11 0 -18.5 7.5t-7.5 18t7.5 18t18.5 7.5h153q11 0 18.5 -7.5t7.5 -18t-7.5 -18t-18.5 -7.5zM610.5 -55q-10.5 0 -18 7.5t-7.5 17.5v154q0 10 7.5 17.5t18 7.5t18 -7.5t7.5 -17.5v-154
q0 -10 -7.5 -17.5t-18 -7.5z" />
    <glyph glyph-name="align-center" unicode="&#xe62a;" 
d="M1003 754v-69h-979v69h979zM1003 333v-69h-979v69h979zM857 544v-69h-682v69h682zM851 129v-69h-677v69h677z" />
    <glyph glyph-name="undo" unicode="&#xe62b;" 
d="M512 834q-118 0 -218.5 -57t-161.5 -153v141h-69v-277h276v69h-166q48 94 139 151t200 57q104 0 191.5 -51t138.5 -138.5t51 -191t-51 -191t-138.5 -138.5t-191.5 -51q-118 0 -213.5 66t-138.5 172l-64 -27q51 -125 164 -202.5t252 -77.5q92 0 175 35.5t143.5 95.5
t96 143.5t35.5 175t-35.5 174.5t-96 143.5t-143.5 96t-175 35.5z" />
    <glyph glyph-name="title" unicode="&#xe62c;" 
d="M124 798v-261l34 1q8 65 51 113.5t82 57.5q25 5 57 1.5t59 -9.5l27 -6v-648q0 -16 -16.5 -30t-33.5 -19l-17 -5l-68 -1l-1 -48h428v46h-78q-16 2 -37 16.5t-34 27.5l-13 13v648q3 1 9 2.5t24.5 6.5t36 6.5t43.5 2.5t46 -4q22 -4 44.5 -23.5t39.5 -44.5t31 -49.5t21 -41.5
l7 -16h34v264h-776v0z" />
    <glyph glyph-name="loading" unicode="&#xc63b;" 
d="M535 597q-48 0 -81.5 34t-33.5 81.5t33.5 81.5t81.5 34t81.5 -34t33.5 -81.5t-33.5 -81.5t-81.5 -34v0zM289.5 505q-43.5 0 -74.5 31t-31 74.5t31 74.5t74.5 31t74.5 -31t31 -74.5t-31 -74.5t-74.5 -31zM185 267q-39 0 -66 27t-27 65.5t27 66t65.5 27.5t66 -27.5
t27.5 -66t-27.5 -65.5t-65.5 -27v0zM289.5 31q-32.5 0 -55.5 23t-23 55.5t23 55.5t55.5 23t55.5 -23t23 -55.5t-23 -55.5t-55.5 -23zM534.5 -60q-28.5 0 -48.5 20.5t-20 49t20 48.5t48.5 20t49 -20t20.5 -48.5t-20.5 -49t-49 -20.5zM784 57q-23 0 -39 16t-16 39t16 39.5
t39 16.5t39.5 -16.5t16.5 -39.5t-16.5 -39t-39.5 -16zM886.5 314q-18.5 0 -32 13.5t-13.5 32t13.5 32t32 13.5t32 -13.5t13.5 -32t-13.5 -32t-32 -13.5zM749 607.5q0 -14.5 10.5 -25t25 -10.5t25 10.5t10.5 25t-10.5 25t-25 10.5t-25 -10.5t-10.5 -25z" />
    <glyph glyph-name="search-minus" unicode="&#xe644;" 
d="M432 814q73 0 140 -28.5t115 -76.5t76.5 -115t28.5 -140q0 -63 -20.5 -120.5t-58.5 -104.5l227 -226q12 -12 12 -29t-11.5 -28.5t-28.5 -11.5t-28 12l-227 227q-47 -38 -104.5 -58.5t-120.5 -20.5q-73 0 -140 28.5t-115 77t-76.5 115t-28.5 139.5t28.5 140t76.5 115
t115 76.5t140 28.5v0zM432 734q-57 0 -109 -22t-89.5 -59.5t-59.5 -89.5t-22 -109t22 -109t59.5 -89.5t89.5 -59.5t109 -22t109 22t89.5 59.5t59.5 89.5t22 109t-22 109t-59.5 89.5t-89.5 59.5t-109 22zM312 494h240q17 0 28.5 -11.5t11.5 -28.5t-11.5 -28.5t-28.5 -11.5
h-240q-17 0 -28.5 11.5t-11.5 28.5t11.5 28.5t28.5 11.5z" />
    <glyph glyph-name="shouye" unicode="&#xc61d;" 
d="M961 502l-4 4l-409 293q-16 12 -36 11.5t-38 -14.5l-397 -283q-13 -11 -18 -15q-16 -13 -16 -44q0 -21 15.5 -36.5t38.5 -15.5v-1l20 1q7 -1 11 -4q3 -3 3 -11l-1 -376q0 -24 14.5 -39t39.5 -15h216q23 0 39 16.5t16 43.5v113v16q0 17 9 27q12 15 42 16h1q32 3 50 -14
q13 -12 13 -34v-124q0 -27 17 -44q15 -15 39 -15l218 -1q28 0 41 20q11 15 11 38v1v0v369q0 13 17 15l18 2v0q22 0 36 14.5t14 37.5q0 28 -20 48zM925 443l-18 -2v0q-23 -3 -37.5 -18.5t-14.5 -37.5v-372q0 -8 -4 -12q-2 -4 -8 -4l-194 1v0h-23q-7 0 -11 6q-3 4 -3 13v125
q-1 40 -27 64q-32 29 -81 25q-49 -3 -73 -32q-17 -21 -17 -59v-123q0 -12 -6 -15q-4 -3 -8 -3h-216q-14 0 -14 12v376q0 27 -13 41q-17 15 -41 15h-21q-5 1 -9 5t-4 10t3 9q12 13 117 87.5t203.5 143.5l98.5 69q3 2 4 3q4 3 9 0q2 -2 4 -3q375 -263 415 -298q6 -5 6 -11
q0 -13 -17 -15z" />
    <glyph glyph-name="copy" unicode="&#xe63b;" 
d="M123 773h613v-72h61v133h-735v-711h107v61h-46v589zM227 645v-711h735v711h-735zM901 -5h-613v589h613v-589z" />
    <glyph glyph-name="right" unicode="&#xc624;" 
d="M289 780q6 -4 13 -12.5t15.5 -15.5t12.5 -13l98 -99q59 -60 119 -120l103 -103q5 -6 15 -16.5t18.5 -18.5t16.5 -16v0v0v34q-14 -13 -41 -41q-49 -49 -98 -99l-118 -118q-70 -70 -103 -104q-50 -49 -50 -49.5v-0.5h-1q-7 -7 -7 -17.5t7 -17.5q8 -7 18 -7t17 7l41 41
q66 66 98 99l119 119q69 69 102 103l50 50h1v1q7 7 7 17t-7 17q-34 35 -41 42l-98 98q-59 60 -119 120l-103 104q-5 6 -15 16l-18.5 18.5t-16.5 15.5v0.5v0.5q-7 7 -17.5 7t-17.5 -7q-7 -8 -7 -17.5t7 -17.5v0z" />
    <glyph glyph-name="github" unicode="&#xe61e;" 
d="M402 201q0 -23 -7 -47t-24.5 -43.5t-41.5 -19.5t-41.5 19.5t-24.5 43.5t-7 47t7 47t24.5 43.5t41.5 19.5t41.5 -19.5t24.5 -43.5t7 -47zM768 201q0 -23 -7 -47t-24.5 -43.5t-41.5 -19.5t-41.5 19.5t-24.5 43.5t-7 47t7 47t24.5 43.5t41.5 19.5t41.5 -19.5t24.5 -43.5
t7 -47zM859 201q0 69 -39 117t-107 48q-23 0 -111 -12q-41 -7 -90 -7t-90 7q-87 12 -111 12q-68 0 -107 -48t-39 -117q0 -50 18 -87.5t46 -59t70 -34.5t80 -17t85 -4h96q47 0 85 4t80 17t70 34.5t46 59t18 87.5zM987 302q0 -119 -34 -189q-22 -44 -60.5 -76t-80.5 -49.5
t-97.5 -27.5t-98 -12.5t-95.5 -2.5q-44 0 -81 2t-84.5 7t-87 17t-78.5 29.5t-69 46t-49 66.5q-35 70 -35 189q0 135 77 226q-15 47 -15 97q0 66 29 125q62 0 108.5 -22.5t108.5 -70.5q84 20 176 20q85 0 160 -19q60 47 107 69.5t108 22.5q29 -59 29 -125q0 -50 -15 -96
q77 -91 77 -227z" />
    <glyph glyph-name="save" unicode="&#xc635;" 
d="M951 663l-160 160q-10 9 -23 9h-608q-40 0 -68 -28t-28 -68v-704q0 -40 28 -68t68 -28h704q40 0 68 28t28 68v608q0 13 -9 23zM320 768h256v-159q0 -13 9.5 -22.5t22.5 -9.5t22.5 9.5t9.5 22.5v159h64v-256h-384v256zM768 0h-512v192h512v-192zM896 32q0 -13 -9.5 -22.5
t-22.5 -9.5h-32v194q0 26 -18 44t-44 18h-516q-26 0 -44 -18t-18 -44v-194h-32q-13 0 -22.5 9.5t-9.5 22.5v704q0 13 9.5 22.5t22.5 9.5h96v-258q0 -26 18 -44t44 -18h388q26 0 44 18t18 44v245l128 -128v-595z" />
    <glyph glyph-name="restore" unicode="&#xe64a;" 
d="M771 171h160v655h-668v-220h39v176h589v-567h-120v-44zM103 606h668v-655h-668v655zM142 562v-567h590v567h-590z" />
    <glyph glyph-name="qrcode" unicode="&#xc630;" 
d="M361 813q0 8 -5 13t-13 5h-258q-7 0 -12 -5t-5 -13v-258q0 -7 5 -12t12 -5h258q8 0 13 5t5 12v258zM330 586q0 -7 -5 -12.5t-13 -5.5h-196q-7 0 -12.5 5.5t-5.5 12.5v197q0 7 5.5 12t12.5 5h196q8 0 13 -5t5 -12v-197zM954 813q0 8 -5 13t-12 5h-258q-8 0 -13 -5t-5 -13
v-258q0 -7 5 -12t13 -5h258q7 0 12 5t5 12v258zM924 586q0 -7 -5.5 -12.5t-12.5 -5.5h-196q-8 0 -13 5.5t-5 12.5v197q0 7 5 12t13 5h196q7 0 12.5 -5t5.5 -12v-197zM68 -48q0 -7 5 -12.5t12 -5.5h258q8 0 13 5.5t5 12.5v258q0 7 -5 12.5t-13 5.5h-258q-7 0 -12 -5.5
t-5 -12.5v-258zM98 179q0 8 5.5 13t12.5 5h196q8 0 13 -5t5 -13v-196q0 -7 -5 -12.5t-13 -5.5h-196q-7 0 -12.5 5.5t-5.5 12.5v196zM73 387q0 6 5 10.5t12 4.5h849q7 0 12 -4.5t5 -10.5t-5 -10.5t-12 -4.5h-849q-7 0 -12 4.5t-5 10.5zM496 813q0 8 4.5 13t10.5 5t10.5 -5
t4.5 -13v-258q0 -7 -4.5 -12t-10.5 -5t-10.5 5t-4.5 12v258zM493 149.5q0 6.5 5 11t12 4.5h425q8 0 13 -4.5t5 -11t-5 -11t-13 -4.5h-425q-7 0 -12 4.5t-5 11zM502 -48.5q0 6.5 5 11t12 4.5h407q7 0 12.5 -4.5t5.5 -11t-5.5 -11t-12.5 -4.5h-407q-7 0 -12 4.5t-5 11z
M502 -33z" />
    <glyph glyph-name="left" unicode="&#xc625;" 
d="M630 867q9 0 17 -6q9 -7 11 -18.5t-5 -21.5l-297 -418l297 -417q7 -10 5 -21.5t-11.5 -18.5t-21.5 -5t-19 11l-309 435q-12 16 0 33l309 434q9 13 24 13z" />
    <glyph glyph-name="qq1" unicode="&#xc631;" 
d="M159 123q30 -10 60 12l2 -2q-52 -32 -52 -80.5t51.5 -80t129.5 -31.5q88 0 140 39h31q53 -39 140 -39q79 0 130 32t51 80t-51 80q1 1 1 2q30 -22 61 -12q28 10 41 44.5t10.5 77.5t-16.5 88q-18 57 -62 106v10q0 39 -20 74v0q0 126 -88 215t-212 89t-212 -89t-88 -215v-1
q-20 -35 -20 -73q0 -4 1 -9q-46 -49 -64 -107q-13 -45 -15.5 -88t10.5 -77.5t41 -44.5v0zM166 320q16 52 60 97q7 8 6 19q-1 7 -1 13q0 29 16 56q4 6 3 13v5q0 107 75 183t181 76t181 -76t75 -183v-4q-1 -7 3 -13q17 -28 17 -57q0 -6 -1 -14q-2 -11 6 -19q43 -44 59 -96
q17 -57 13.5 -103t-20.5 -52q-15 -4 -35 19q-7 9 -19 8t-17 -12q-12 -22 -28 -42q-6 -8 -3.5 -19t12.5 -15q49 -20 49 -51q0 -28 -40 -47.5t-97 -19.5q-79 0 -118 34q-6 5 -15 5h-1q-21 -1 -42 0q-9 1 -16 -5q-40 -34 -119 -34q-56 0 -96 19.5t-40 47.5q0 31 48 51
q11 5 13.5 15.5t-4.5 18.5q-15 20 -27 43q-6 10 -17.5 11t-19.5 -8q-20 -24 -34 -19q-18 6 -21 52t14 103v0v0z" />
    <glyph glyph-name="position" unicode="&#xc639;" 
d="M528 60q-6 -7 -16 -7t-16 7q-14 16 -35 41.5t-69 89.5t-84.5 121t-66 123t-29.5 109q0 120 88 205t212 85t212 -85t88 -205q0 -43 -29.5 -109t-66 -123t-84.5 -121t-69 -89.5t-35 -41.5zM512 793q-107 0 -182.5 -73t-75.5 -176q0 -42 30.5 -106.5t78.5 -134t82 -114.5
t67 -84q33 39 67 84t82 114.5t78.5 134t30.5 106.5q0 103 -75.5 176t-182.5 73zM515.5 446q-51.5 0 -88 35.5t-36.5 85t36.5 85t88 35.5t88 -35.5t36.5 -85t-36.5 -85t-88 -35.5zM516 646q-34 0 -58 -23t-24 -56t24 -56.5t58 -23.5t58 23.5t24 56.5t-24 56t-58 23zM373 155
q8 1 15.5 -3.5t9 -13t-3 -15.5t-13.5 -8q-59 -12 -93 -30t-34 -35q0 -11 18.5 -24.5t51 -24.5t82.5 -18.5t106 -7.5t106 7.5t82.5 18.5t51 24.5t18.5 24.5q0 16 -33.5 34.5t-91.5 29.5q-8 2 -13 9t-3 15t9 13t16 3q75 -15 116.5 -42t41.5 -62q0 -36 -44.5 -63t-111.5 -40
t-144 -13t-144 13t-111.5 40t-44.5 63t42 63t119 42z" />
    <glyph glyph-name="play" unicode="&#xc636;" 
d="M232 776l560 -392l-560 -392v784v0zM232 832q-14 0 -26 -7q-30 -15 -30 -49v-784q0 -34 30 -50q12 -6 26 -6q18 0 32 10l560 392q24 17 24 46t-24 46l-560 392q-14 10 -32 10v0z" />
    <glyph glyph-name="checkbox" unicode="&#xc628;" 
d="M962 -66h-902v901h902v-901zM103 -23h816v815h-816v-815zM103 -23z" />
    <glyph glyph-name="error-round" unicode="&#xc63c;" 
d="M512 834q-186 0 -318 -132t-132 -318t132 -318t318 -132t318 132t132 318t-132 318t-318 132zM512 -27q-112 0 -206.5 55t-149.5 149.5t-55 206.5t55 206.5t149.5 149.5t206.5 55t206.5 -55t149.5 -149.5t55 -206.5t-55 -206.5t-149.5 -149.5t-206.5 -55zM664 564
l-152 -152l-152 152l-28 -28l152 -152l-152 -152l28 -28l152 152l152 -152l28 28l-152 152l152 152z" />
    <glyph glyph-name="204" unicode="&#xe61f;" 
d="M1015 392q-262 333 -538 316q-100 -6 -196 -58q-77 -41 -148 -109q-80 -77 -126 -152q-5 -8 -5 -17q0 -10 5 -18q46 -75 126 -152q71 -68 148 -109q96 -52 196 -58q13 -1 26 -1q263 0 512 317q7 9 7 21q0 11 -7 20zM481 96q-157 9 -304 149q-61 58 -108 127
q47 68 108 126q147 140 304 149q237 14 472 -275q-235 -290 -472 -276zM512 517q-62 0 -106 -44t-44 -106.5t44 -106.5t106 -44t106.5 44t44.5 106.5t-44.5 106.5t-106.5 44zM511.5 278q-36.5 0 -63 26t-26.5 62.5t26.5 63t63 26.5t62.5 -26.5t26 -63t-26 -62.5t-62.5 -26z
" />
    <glyph glyph-name="iconfontshoucang" unicode="&#xe620;" 
d="M744 798q-45 0 -98 -22t-85.5 -44t-62.5 -47l-21.5 21.5t-28.5 27t-30 22t-39.5 23t-43.5 13t-55 6.5q-109 0 -186.5 -78t-77.5 -187q0 -32 5.5 -59t18.5 -51t23 -38t29 -38l330 -334q43 -43 90 -43t90 43l328 332q78 85 78 188q0 109 -77.5 187t-186.5 78zM882 391
l-327 -331q-24 -24 -43 -24q-20 1 -43 24l-326 329q-34 43 -47.5 71.5t-13.5 72.5q0 82 58 140.5t140 58.5q33 0 67 -16t55.5 -34t46 -40.5t31.5 -27.5q22 -16 46 5q15 13 31.5 26t49.5 35.5t69.5 37t67.5 14.5q82 0 140 -58.5t58 -140.5q0 -77 -60 -142z" />
    <glyph glyph-name="iconfont" unicode="&#xe616;" 
d="M32 544q14 0 22 8t9 16l1 8v192q0 26 19 45t45 19h192q4 0 9 1t14 9t9 22t-8 22t-16 9l-8 1h-192q-53 0 -90.5 -37.5t-37.5 -90.5v-192q0 -4 1 -9t9 -14t22 -9zM192 416q0 -13 9.5 -22.5t22.5 -9.5h512q13 0 22.5 9.5t9.5 22.5t-9.5 22.5t-22.5 9.5h-512
q-13 0 -22.5 -9.5t-9.5 -22.5zM832 896h-192q-4 0 -9 -1t-14 -9t-9 -22t8 -22t16 -9l8 -1h192q26 0 45 -19t19 -45v-192q0 -4 1 -9t9 -14t22 -9t22 8t9 16l1 8v192q0 53 -37.5 90.5t-90.5 37.5zM320 0h-192q-26 0 -45 19t-19 45v192q0 4 -1 9t-9 14t-22 9t-22 -8t-9 -16
l-1 -8v-192q0 -53 37.5 -90.5t90.5 -37.5h192q4 0 9 1t14 9t9 22t-8 22t-16 9zM928 288q-14 0 -22 -8t-9 -16l-1 -8v-192q0 -26 -19 -45t-45 -19h-192q-4 0 -9 -1t-14 -9t-9 -22t8 -22t16 -9l8 -1h192q53 0 90.5 37.5t37.5 90.5v192q0 4 -1 9t-9 14t-22 9z" />
    <glyph glyph-name="code-square" unicode="&#xe630;" 
d="M472 324q0 8 -8 16v0l-160 120q-8 4 -12 4q-20 0 -20 -20q0 -8 8 -16v0l138 -104l-138 -104q-8 -8 -8 -16q0 -20 20 -20q4 0 12 4v0l160 120q8 8 8 16zM872 824h-720q-33 0 -56.5 -23.5t-23.5 -56.5v-720q0 -33 23.5 -56.5t56.5 -23.5h720q33 0 56.5 23.5t23.5 56.5v720
q0 33 -23.5 56.5t-56.5 23.5zM912 24q0 -16 -12 -28t-28 -12h-720q-16 0 -28 12t-12 28v720q0 16 12 28t28 12h720q16 0 28 -12t12 -28v-720zM612 184h-120q-20 0 -20 -20t20 -20h120q20 0 20 20t-20 20z" />
    <glyph glyph-name="list" unicode="&#xe62e;" 
d="M949 637q0 -14 -10.5 -23t-26.5 -9h-655q-15 0 -25.5 9t-10.5 23v0q0 15 10.5 26t25.5 11h655q16 0 26.5 -11t10.5 -26v0zM949 346q0 15 -10.5 25.5t-26.5 10.5h-655q-15 0 -25.5 -10.5t-10.5 -25.5v0q0 -15 10.5 -24t25.5 -9h655q16 0 26.5 9t10.5 24v0zM949 55
q0 15 -10.5 25.5t-26.5 10.5h-655q-15 0 -25.5 -10.5t-10.5 -25.5v0q0 -15 10.5 -24t25.5 -9h655q16 0 26.5 9t10.5 24v0zM149 640q0 15 -11 26t-26 11v0q-15 0 -25.5 -11t-10.5 -26v0q0 -15 10.5 -25.5t25.5 -10.5v0q15 0 26 10.5t11 25.5v0zM149 349q0 15 -11 26t-26 11v0
q-15 0 -25.5 -11t-10.5 -26v0q0 -15 10.5 -25.5t25.5 -10.5v0q15 0 26 10.5t11 25.5v0zM149 58q0 15 -11 25.5t-26 10.5v0q-15 0 -25.5 -10.5t-10.5 -25.5v0q0 -15 10.5 -26t25.5 -11v0q15 0 26 11t11 26v0z" />
    <glyph glyph-name="list-order" unicode="&#xe62f;" 
d="M964 622q0 -14 -9.5 -22.5t-24.5 -8.5h-614q-15 0 -24.5 8.5t-9.5 22.5v0q0 14 10 24t24 10h614q14 0 24 -10t10 -24v0zM964 348q0 15 -10 25t-24 10h-614q-14 0 -24 -10t-10 -25v0q0 -13 9.5 -21.5t24.5 -8.5h614q15 0 24.5 8.5t9.5 21.5v0zM964 75q0 14 -10 24t-24 10
h-614q-14 0 -24 -10t-10 -24v0q0 -13 9.5 -21.5t24.5 -8.5h614q15 0 24.5 8.5t9.5 21.5v0zM178 737h-15q-7 -13 -22 -26.5t-35 -22.5v-23q11 4 25 12t23 17v-153h24v196v0zM111 284q4 7 10 13.5t28 24.5q26 22 37 34q11 13 16 24q4 12 4 23q0 23 -16.5 38.5t-44 15.5
t-44 -14.5t-19.5 -41.5l25 -3q0 19 10.5 29.5t27.5 10.5q16 0 26.5 -10t10.5 -24t-11 -29t-44 -42q-20 -16 -31 -29t-16 -26q-3 -8 -3 -17h130v23h-96zM97 -5q18 -15 43 -15q29 0 47.5 17.5t18.5 43.5q0 19 -9.5 31.5t-27.5 16.5q14 6 20.5 16.5t6.5 23.5t-7 25t-20.5 19
t-29.5 7q-23 0 -38.5 -13.5t-20.5 -37.5l24 -4q3 17 12.5 26t23.5 9t23 -8.5t9 -22.5q0 -16 -12.5 -24t-27.5 -8h-4l-3 -21q11 3 17 3q17 0 28 -11t11 -27q0 -18 -12 -29.5t-29 -11.5q-14 0 -24 9t-14 29l-24 -3q2 -25 19 -40v0z" />
    <glyph glyph-name="volume1" unicode="&#xc632;" 
d="M681 187v0q-10 14 4 25q40 33 62 80t22 98q0 53 -23 100t-63 80q-14 11 -4 26v0q5 6 13 7.5t15 -3.5q47 -38 73.5 -93t26.5 -117q0 -60 -25.5 -114.5t-72.5 -92.5q-6 -5 -14.5 -4t-13.5 8zM410 183v0v0zM790 26v0q-4 6 -3.5 13.5t6.5 12.5q76 64 117.5 152.5t41.5 187.5
t-42 188t-118 152q-6 5 -7 13t4 14v0q5 6 13 7t14 -4q77 -64 123 -153q51 -102 51 -217t-51 -216q-45 -89 -121 -153q-6 -5 -14.5 -4.5t-13.5 7.5v0zM230 187h-117q-31 0 -53 22t-22 54v255q0 31 22 53.5t53 22.5h121q7 0 8.5 -4.5t1.5 -15.5h9q0 -7 -5.5 -13t-13.5 -6h-121
q-15 0 -26 -11t-11 -26v-255q0 -16 11 -27t26 -11h122q8 0 13.5 -5.5t5.5 -13.5h-12q0 -19 -12 -19zM529 -59q-31 0 -55 19v0l-248 231q-7 5 -7.5 13t4.5 14v0q5 6 13 7t14 -4l248 -231q23 -18 50 -6q27 11 29 39q1 3 1 6v724v2q-1 30 -29 42q-28 13 -51 -7l-249 -230
q-6 -5 -14 -4.5t-13 6.5l12 10q-2 2 -4.5 4t-4 3.5t-2.5 3t-0.5 3t2.5 3.5l248 231q20 16 44.5 19.5t47.5 -7.5q23 -10 36.5 -30.5t14.5 -45.5v-3v-724v-9q-3 -24 -16.5 -43t-36.5 -29q-16 -7 -34 -7v0z" />
    <glyph glyph-name="setting" unicode="&#xe60b;" 
d="M656 -82q-37 0 -63 30q-32 37 -81 37t-81 -37q-17 -20 -41.5 -26.5t-47.5 1.5q-79 29 -144 84q-20 16 -26 41q-5 24 3 47q16 47 -9 89q-24 43 -72 52q-26 5 -44 23t-22 42q-7 41 -7 83t7 83q4 24 22 42t44 23q48 9 72 52q25 42 9 89q-8 23 -3 47q6 25 26 41q65 55 144 84
q23 8 47.5 1.5t41.5 -26.5q32 -37 81 -37t81 37q17 20 41.5 26.5t47.5 -1.5q79 -29 144 -84q20 -16 26 -41q5 -24 -3 -47q-16 -47 9 -89q24 -43 72 -52q26 -5 44 -23t22 -42q7 -41 7 -83t-7 -83q-4 -24 -22 -42t-44 -23q-48 -9 -72 -52q-25 -42 -9 -89q8 -23 3 -47
q-6 -25 -26 -41q-65 -55 -144 -84q-13 -5 -26 -5zM512 46q76 0 127 -57q11 -12 22 -8q69 25 126 73q9 7 4 21q-25 73 13 140q39 66 114 81v0q16 4 18 15q6 36 6 73t-6 73q-2 11 -18 15q-75 15 -114 81q-38 67 -13 140q5 14 -4 21q-57 48 -126 73q-11 4 -22 -8
q-51 -57 -127 -57t-127 57q-11 12 -22 8q-69 -25 -126 -73q-9 -7 -4 -21q25 -73 -13 -140q-39 -66 -114 -81q-16 -4 -18 -15q-6 -36 -6 -73t6 -73q2 -11 18 -15q75 -15 114 -81q38 -67 13 -140q-5 -14 4 -21q57 -48 126 -73q11 -4 22 8q51 57 127 57zM512 215q-58 0 -111 37
v0q-12 9 -21 21q-42 61 -36 126q5 61 48.5 104.5t104.5 48.5q65 6 126 -36q12 -9 21 -21q42 -61 36 -126q-5 -61 -48.5 -104.5t-104.5 -48.5q-7 -1 -15 -1zM512 491q-44 0 -76 -31q-16 -16 -25 -38t-5 -53t24 -61l6 -6v0q37 -25 76 -25q44 0 76 31q16 16 25 38t5 53t-24 61
l-6 6q-37 25 -76 25z" />
    <glyph glyph-name="cut" unicode="&#xe63c;" 
d="M853 253q-54 54 -131 54q-19 0 -37 -3l-141 161l280 320q7 8 6.5 18.5t-8.5 17.5t-18.5 6.5t-17.5 -8.5l-276 -315l-274 312q-7 8 -17.5 9t-18.5 -6t-9 -17.5t6 -18.5l279 -318l-140 -161q-17 3 -34 3q-76 0 -130.5 -54t-54.5 -130.5t54.5 -131t131 -54.5t130.5 54.5
t54 131t-54 130.5q-20 20 -45 34l122 139l123 -141q-23 -13 -42 -32q-54 -54 -54 -130.5t54 -131t131 -54.5t131 54.5t54 131t-54 130.5zM397 217q39 -39 39 -94.5t-39 -95t-94.5 -39.5t-95 39.5t-39.5 95t39.5 94.5t95 39t94.5 -39zM816.5 27.5q-39.5 -39.5 -95 -39.5
t-94.5 39.5t-39 95t39 94.5t94.5 39t95 -39t39.5 -94.5t-39.5 -95z" />
    <glyph glyph-name="superscript" unicode="&#xe62d;" 
d="M739 703h-112l-156 -205q-34 -45 -62 -88q-19 34 -62 95l-141 199h-122l265 -372l-300 -404h123l195 270q10 14 37 58q13 -20 34 -51l195 -277h127l-293 410zM889 646q7 8 29 28q23 21 31 32q13 16 20 32q6 15 6 33q0 30 -21 49q-22 20 -59 20q-34 0 -56 -17
q-23 -18 -27 -57l48 -5q1 21 10 30t24.5 9t24 -8.5t8.5 -24.5q0 -14 -10 -30q-8 -11 -40 -41q-40 -37 -54 -60t-17 -48h169v45h-96q3 6 10 13z" />
    <glyph glyph-name="subscript" unicode="&#xe639;" 
d="M842 72q16 15 23 21q10 8 39 28q50 36 69 65t19 61q0 30 -17 55q-16 24 -45 36q-28 11 -80 11q-49 0 -77 -12q-28 -13 -43 -35q-16 -23 -21 -65l98 -8q4 30 16 42t30 12t30 -11.5t12 -27.5q0 -15 -12 -32t-55 -48q-70 -52 -95.5 -90t-30.5 -82h292v80h-152v0zM605 776
h-102l-141 -186q-31 -41 -55 -80q-17 30 -57 86l-128 180h-110l239 -336l-271 -366h111l177 245q10 14 33 52q18 -28 31 -47l177 -250h115l-266 371z" />
    <glyph glyph-name="warning-round" unicode="&#xc63d;" 
d="M512 581v-321q0 -9 4.5 -15.5t10 -6.5t10 6.5t4.5 15.5v321q0 9 -4.5 15.5t-10 6.5t-10 -6.5t-4.5 -15.5zM527 208q-12 0 -21 -8.5t-9 -20.5t9 -20.5t21 -8.5t20.5 8.5t8.5 20.5t-8.5 20.5t-20.5 8.5zM214 725q-74 -64 -114.5 -153t-40.5 -188q0 -92 35.5 -176t96.5 -145
t145 -96.5t176 -35.5t176 35.5t145 96.5t96.5 145t35.5 176t-35.5 176t-96.5 145t-145 96.5t-176 35.5q-114 0 -214 -53l14 -26q93 50 200 50q115 0 213 -56.5t154.5 -154.5t56.5 -213t-56.5 -213t-154.5 -154.5t-213 -56.5t-213 56.5t-154.5 154.5t-56.5 213q0 93 38 176
t107 143z" />
    <glyph glyph-name="checkbox-checked" unicode="&#xc629;" 
d="M940 831h-877v-894h895v894h-18zM922 -27h-823v822h823v-822zM864 596l-47 47l-408 -424l-173 173l-47 -47l220 -220z" />
    <glyph glyph-name="user1" unicode="&#xe605;" 
d="M505 835q94 0 161 -65.5t67 -158.5t-67 -159t-161.5 -66t-161 66t-66.5 159t66.5 158.5t161.5 65.5v0zM505 835q94 0 161 -65.5t67 -158.5t-67 -159t-161.5 -66t-161 66t-66.5 159t66.5 158.5t161.5 65.5v0zM419 312h191q122 0 208 -85t86 -205v-19q0 -15 -9.5 -26.5
t-31.5 -18.5t-44.5 -11.5t-61 -6t-68.5 -2t-79 -0.5h-191h-79.5t-68 2t-62 6t-43.5 11t-32 18.5t-9 27.5v19q0 120 86 205t208 85v0z" />
    <glyph glyph-name="hua" unicode="&#xe60e;" 
d="M419 1q-14 0 -23 10q-22 25 -53 43.5t-56 27t-51.5 13.5t-37 5.5t-15.5 0.5v0q-13 0 -22 8.5t-9.5 21.5t8.5 21.5t22 9.5q6 0 20 -1t45.5 -6.5t62.5 -16t67.5 -33t64.5 -53.5q9 -9 8.5 -22t-10.5 -21q-9 -8 -21 -8v0zM627 1q-12 0 -21 8q-9 9 -9.5 21.5t7.5 21.5
q29 31 66.5 53.5t68 33t61.5 16t45 6.5t20 1q12 0 21 -9t9 -21.5t-9 -21.5t-22 -9v0v0q-6 0 -15.5 -0.5t-36.5 -5.5t-52 -13.5t-56 -27t-54 -43.5q-9 -10 -23 -10v0zM572 156h-98q-4 0 -9 1q-78 10 -143 53.5t-108 115.5q-50 83 -60.5 182t22.5 176q8 18 28 19h9
q89 0 165 -33q54 98 123 147q4 3 8 5v0q16 7 30 -2l4 -4q68 -49 122 -148q77 35 168 35h10q20 -1 28 -19q33 -78 22.5 -176.5t-60.5 -181.5q-43 -72 -108 -115.5t-143 -53.5q-5 -1 -10 -1v0zM480 217h87h2q135 15 210 140q39 65 50.5 143.5t-8.5 141.5q-85 -3 -154 -41
q-12 -6 -24.5 -2t-18.5 16q-47 93 -103 140q-56 -47 -102 -139q-6 -11 -18.5 -15t-24.5 2q-67 36 -150 39q-20 -63 -9 -141.5t50 -143.5q75 -125 211 -140h2v0zM523 -25q-13 0 -22 9t-9 21v181q0 13 9 22t22 9t22 -9t9 -22v-181q0 -12 -9 -21t-22 -9v0zM523 -25z" />
    <glyph glyph-name="1456296108341" unicode="&#xe60f;" horiz-adv-x="1470" 
d="M1183 896h-898q-56 0 -96 -47t-40 -113v-516q0 -66 40 -113t96 -47h898q56 0 95.5 47t39.5 113v516q0 67 -39.5 113.5t-95.5 46.5zM1249 269q0 -55 -35 -94.5t-84 -39.5h-790q-49 0 -84 39.5t-35 94.5v434q0 56 35 95t84 39h790q49 0 84 -39t35 -95v-434v0zM0 -61
q0 -27 31.5 -47t75.5 -20h1256q44 0 75.5 20t31.5 47v79h-1470v-79zM604 -34h262v-42h-262v42z" />
    <glyph glyph-name="ok" unicode="&#xe610;" 
d="M1 880h1007v-849h-1007v849v0z" />
    <glyph glyph-name="test" unicode="&#xe611;" 
d="M1 880h1007v-504h-1007v504v0z" />
    <glyph glyph-name="big" unicode="&#xe612;" 
d="M1 880h1007v-1008h-1007v1008v0z" />
    <glyph glyph-name="half" unicode="&#xe613;" 
d="M1 880h1007v-504h-1007v504v0z" />
    <glyph glyph-name="wang" unicode="&#xe614;" 
d="M576 111h20v-4h-20v4zM664 132h5v-16h-5v16zM433 124h-15h-1q3 -4 8 -6q5 3 8 6zM443 132h-37v-37h37v37zM435 96q-11 3 -24 4l1 4q13 -2 25 -4zM417 107l1 3q7 -1 15 -2l-1 -4q-8 2 -15 3zM440 110q-9 2 -15 4q-6 -2 -16 -5q-1 2 -2 3q9 2 14 4l-6 6l-5 -5q-1 1 -2 3
q7 5 11 12l3 -2q-1 -1 -2 -3h18v-3q-4 -4 -9 -8q5 -1 13 -3q-1 -2 -2 -3zM680 133h5v-17h-5v17zM576 104h20v-3h-20v3zM825 618q-36 29 -88 52t-86.5 33t-99.5 27q-10 2 -34 8t-30.5 7.5t-22.5 6.5t-23.5 8.5t-20 9.5t-24.5 14q-32 20 -76 40.5t-49 14.5q-4 -4 0.5 -13.5
t13.5 -26t13 -30.5q23 -71 -35 -116q-208 -158 -199 -352q6 -110 70 -196.5t169 -131t229 -36.5q189 12 306.5 123.5t121.5 280.5q4 163 -135 277zM383 130h4v-30h-4v30zM301 135h41v-4h-41v4zM297 95q5 7 11 17l3 -2q-5 -9 -11 -17q-2 1 -3 2zM325 96q0 -7 -7 -7h-8v5h7
t3 3v19h-24v4h50v-4h-21v-20zM343 94q-6 9 -12 16l3 2q7 -7 12 -16zM358 88h-4v30q-2 -5 -5 -9q0 2 -1 4q6 11 9 25l4 -1q-1 -5 -3 -11v-38zM382 131h-10q-1 -4 -2 -7h10v-4q-2 -20 -16 -32q-2 2 -3 4q7 5 11 13q-3 3 -6 5l2 3q3 -2 5 -4q2 5 3 11h-7q-3 -9 -7 -15
q-1 2 -3 4q6 8 9 22h-6v4h20v-4zM396 96q0 -4 -1.5 -5.5t-4.5 -1.5h-7v4h6q2 0 2.5 0.5t0.5 3.5v41h4v-42zM693 134h4v-34h-4v34zM471 135h27v-4h-27v4zM447 88h-4v3h-37v-3h-4v48h45v-48zM462 89h-3v27q-3 -9 -7 -14q0 2 -1 4q5 9 7 18h-7v4h8v10h3v-10h7v-4h-7v-9l3 3
q3 -3 5 -6l-2 -2q-3 2 -6 5v-26zM466 96q4 6 8 16l4 -2q-5 -9 -9 -16q-1 1 -3 2zM487 95q0 -6 -6 -6h-7q0 2 -1 4h7t3 4v19h-14v4h32v-4h-14v-21zM497 94q-3 8 -7 16l4 2q4 -10 8 -16zM526 88h-4l4 13h4zM528 306l39 41l42 43q6 4 -2 6q-3 0 -52 10l-48 10q-1 42 10.5 67.5
t32.5 28.5q27 3 51.5 -31.5t33.5 -96.5q8 -53 -6.5 -94t-40.5 -44q-35 -4 -60 60zM567 129l-3 -3q-4 4 -7 8l3 2zM561 90l-2 3q1 2 1 5v19h-6v4h10v-24l6 4v-4q-5 -4 -9 -7zM600 95q0 -6 -6 -6h-7q-1 2 -1 4h7t3 2v3h-20v-9h-4v25h28v-19zM604 117h-37v3h17v4h-13v3h13v3
h-15v4h15v4h4v-4h15v-4h-15v-3h14v-3h-14v-4h16v-3zM655 94q0 -2 -2 -4h-6h-6q-7 -1 -6 6v15h-10q-1 -9 -4 -13q-3 -6 -13 -10q-1 2 -3 4q9 3 13 8q2 3 3 11h-14v4h22v10h-12q-3 -5 -6 -8q-2 1 -3 2q6 7 9 18l4 -2q-1 -3 -3 -6h11v9h4v-9h18v-4h-18v-10h22v-4h-16v-14
q-1 -4 3 -4h5q4 0 4.5 2.5t0.5 7.5q2 -1 4 -1q0 -4 -1 -8zM692 113h-4v-19q0 -5 -4 -5h-4q0 2 -1 4q2 -1 4 -1t2 3v18h-5v-5q0 -13 -5 -20q-1 2 -2 3q4 6 4 17v5h-4v-18q0 -5 -5 -5h-3q-1 2 -1 4h4q1 0 1 2v17h-5v-6q0 -11 -4 -19l-3 3q4 6 4 17v5h-4v3h4v20h12v-20h4v20h11
v-20h4v-3zM705 95q0 -6 -5 -6h-7q0 2 -1 4h6q3 0 3 3v42h4v-43zM716 99q0 2 -1 4q2 -1 4 -1q4 1 3 7q-1 4 -5 9q2 6 4 14h-6v-44h-4v47h14v-3q-2 -8 -4 -14q4 -5 5 -9q1 -9 -5 -10q-2 -1 -5 0zM723 93q5 5 8 12l3 -2q-3 -7 -7 -12zM755 92q-5 6 -9 10l3 2q5 -4 9 -9z
M757 117q-10 6 -16 15q-4 -7 -10 -12h21v-3h-9v-6h14v-4h-14v-12q0 -6 -5 -6h-6q0 2 -1 4h6q2 0 2 2v12h-12v4h12v6h-9v2q-2 -1 -4 -3l-2 4q10 7 16 17h4l-1 -2q6 -9 16 -14zM844 293q-16 -3 -28.5 14t-22.5 49q32 30 35 33q20 16 39 35q5 5 -2 7q-7 0 -45 7q-7 1 -22.5 4
t-18.5 4q0 39 10.5 67.5t30.5 32.5q23 4 42 -32.5t25 -89.5q6 -57 -7.5 -91t-35.5 -40z" />
    <glyph glyph-name="delete" unicode="&#xe615;" 
d="M640 161v351q0 13 -9.5 22.5t-23 9.5t-22.5 -9.5t-9 -22.5v-351q0 -14 9 -23t22.5 -9t23 9t9.5 23zM448 161v351q0 13 -9 22.5t-22.5 9.5t-23 -9.5t-9.5 -22.5v-351q0 -14 9.5 -23t23 -9t22.5 9t9 23zM927 671h-160v64q0 40 -27.5 68t-67.5 28h-320q-39 0 -67 -28
t-28 -68v-64h-160q-13 0 -22.5 -9t-9.5 -22.5t9.5 -23t22.5 -9.5h830q13 0 22.5 9.5t9.5 23t-9.5 22.5t-22.5 9zM703 671h-382v64q0 13 9 22.5t22 9.5h320q13 0 22 -9.5t9 -22.5v-64zM799.5 543q-13.5 0 -23 -9.5t-9.5 -22.5v-478q0 -13 -9 -22.5t-23 -9.5h-446
q-14 0 -23 9.5t-9 22.5v479q0 13 -9.5 22.5t-22.5 9.5t-22.5 -9.5t-9.5 -22.5v-479q0 -40 28 -68t68 -28h446q40 0 68 28t28 68v478q0 13 -9 22.5t-22.5 9.5z" />
    <glyph glyph-name="intent" unicode="&#xe63a;" 
d="M70 -2h884v-65h-884v65zM70 835h884v-65h-884v65zM380 244h574v-64h-574v64zM380 531h574v-65h-574v65zM70 556l170 -187l-170 -187v374z" />
    <glyph glyph-name="terminal" unicode="&#xe642;" 
d="M1018.5 124.5q-5.5 5.5 -14.5 5.5h-595q-9 0 -14.5 -5.5t-5.5 -14.5v-40q0 -8 5.5 -13.5t14.5 -5.5h595q9 0 14.5 5.5t5.5 13.5v40q0 9 -5.5 14.5zM66 711q-6 6 -14.5 6t-14.5 -6l-31 -31q-6 -6 -6 -14t6 -14l244 -244l-244 -244q-6 -6 -6 -14t6 -14l31 -31q6 -7 14.5 -7
t14.5 7l289 289q6 6 6 14t-6 14z" />
    <glyph glyph-name="tool" unicode="&#xc633;" 
d="M943 642q-4 13 -17 16t-22 -6l-136 -136q-8 -8 -20.5 -8t-20.5 8l-83 83q-9 8 -9 20.5t9 20.5l136 136q9 9 6 22t-16 17q-36 11 -75 11q-107 0 -182.5 -76t-75.5 -183q0 -54 22 -104l-363 -312q-24 -20 -25.5 -51t21.5 -53l83 -83q21 -22 50 -22q33 0 54 26l312 363
q50 -22 104 -22q107 0 183 75.5t76 182.5q0 39 -11 75v0zM695 355q-53 0 -100 25q-16 8 -28 -6l-323 -376q-6 -8 -17.5 -8.5t-19.5 6.5l-83 83q-8 8 -7.5 19t9.5 18l376 323q14 12 6 29q-25 46 -25 99q0 88 62 150.5t150 62.5q11 0 22 -2l-106 -105q-22 -22 -22 -53.5
t22 -53.5l83 -83q22 -22 53.5 -22t53.5 22l105 106q2 -11 2 -22q0 -88 -62.5 -150t-150.5 -62v0zM695 355z" />
    <glyph glyph-name="lineheight" unicode="&#xe63e;" 
d="M581 -51q-33 0 -126.5 5.5t-157.5 4t-125 -12.5q-8 26 -3.5 38.5t25.5 20.5q28 11 89 30q16 5 17 21q0 6 2 31t2 39q1 198 0 547q0 27 -3 44q-1 4 -5 9t-7 5q-95 13 -162 -12q-16 -6 -23 -29q-3 -12 -9.5 -35t-8.5 -32q-3 -11 -6 -17q-1 -1 -3.5 -8t-4 -9.5t-5.5 -5
t-10 -2.5q-10 1 -19.5 13.5t-9.5 24.5v184v17q14 3 30.5 2.5t29.5 -8.5q8 -5 18.5 -7.5t16.5 -3t20 0t17 0.5q213 0 493 3q5 0 14 5t13 6q3 1 39 6q2 -10 2 -11q0 -159 -1 -226q0 -16 -4 -18q-11 -5 -32 -8q-2 0 -8 11q-27 54 -38 133q-2 17 -7.5 22.5t-20.5 5.5
q-30 0 -88.5 -1.5t-65.5 -1.5q-12 0 -12 -13q-1 -26 -2 -101.5t-1 -116.5v-385q0 -11 3 -52q1 -23 21 -29q16 -4 87 -27q24 -8 29 -18t0 -39zM861 94v584h-44q-18 1 -22.5 10.5t5.5 24.5q31 44 72 95q10 13 24 12.5t23 -13.5q43 -54 70 -92q10 -13 6 -27q-2 -8 -22 -10h-42
v-583q36 0 40 -1q22 -2 24 -10q4 -13 -7 -28q-22 -31 -67 -89q-12 -15 -26 -15t-26 15q-13 17 -66 89q-4 4 -6 9q-13 27 14 29h50v0z" />
    <glyph glyph-name="quote-left" unicode="&#xe632;" 
d="M458 712v-120q-140 -4 -228 -121q58 6 104 -14q63 -26 97 -86t28 -132q-7 -66 -52.5 -117.5t-108.5 -63.5q-88 -17 -158 39t-78 150q-14 176 85 306q98 128 249 152q3 0 62 7zM970 712v-120q-139 -4 -228 -121q55 5 99 -12q65 -25 100 -84.5t30 -133.5q-5 -66 -50.5 -118
t-109.5 -65q-87 -18 -158 38.5t-79 150.5q-14 179 88 309q97 125 246 149q3 0 62 7z" />
    <glyph glyph-name="app" unicode="&#xc63a;" 
d="M422 1008v0v0v0v0zM917 834h-326q-17 0 -31 -14t-14 -31v-321q0 -20 13.5 -35t31.5 -15h320q21 0 36 13.5t15 31.5v326q0 17 -14 31t-31 14v0zM906 474h-304v304h304v-304zM906 474zM433 834h-326q-17 0 -31 -14t-14 -31v-321q0 -20 14 -35t31 -15h321q20 0 35 13.5
t15 31.5v326q0 17 -14 31t-31 14v0zM422 474h-304v304h304v-304zM422 474zM433 350h-326q-17 0 -31 -14t-14 -31v-320q0 -21 14 -36t31 -15h321q20 0 32.5 13.5t12.5 31.5v326q4 17 -9 31t-31 14v0zM422 -10h-304v304h304v-304zM422 -10zM917 350h-326q-17 0 -31 -14
t-14 -31v-320q0 -21 13.5 -36t31.5 -15h320q21 0 33 13.5t12 31.5v326q4 17 -9 31t-30 14v0zM906 -10h-304v304h304v-304zM906 -10z" />
    <glyph glyph-name="background-color" unicode="&#xe633;" 
d="M744 796h-464q-57 0 -97.5 -42.5t-40.5 -102.5v-486q0 -60 40.5 -102.5t97.5 -42.5h464q57 0 97.5 42.5t40.5 102.5v486q0 60 -40.5 102.5t-97.5 42.5zM832 108q-140 13 -294 1v31q40 9 52 12l2 0.5t3 0.5q18 4 22 11t-3 25q-16 45 -48 127q-3 6 -10 6q-81 1 -157 1
q-8 0 -10 -7q-30 -80 -43 -121q-11 -32 22 -42q6 -2 27 -6q1 0 26 -4q1 -29 -2 -32t-26 0q-9 1 -41 3.5t-49 3.5q-13 0 -36.5 -3.5t-30.5 -3.5h-39v30q40 8 42 9q38 5 53 46q35 97 100.5 275.5t88.5 242.5q5 12 17 12q4 -1 12 0t14 0.5t10 -3t7 -8t6 -14.5l4 -12
q36 -90 101.5 -256t86.5 -217q1 -5 6 -15.5t7 -16.5q9 -26 38 -32q3 0 13.5 -3t15.5 -3q13 -1 13 -15v-23v0zM474 550q-22 -59 -65 -178h137q-14 38 -69 179z" />
    <glyph glyph-name="font-size" unicode="&#xe634;" 
d="M967 545q-7 71 -31 105q-23 33 -51 41t-63 8h-96v-556q0 -33 6.5 -51t31.5 -29q24 -10 72 -10v-51h-381v51q70 0 90.5 20t20.5 70v556h-81q-47 0 -79 -8q-31 -7 -55 -41t-27 -104h-53v215h750v-215h-54v-1zM427 298h-30q-4 40 -17 57q-13 19 -28 23q-15 5 -35 5h-52v-306
q0 -18 3 -28q4 -11 17 -16q14 -5 40 -5v-29h-209v29q39 0 49 11q11 11 11 38v306h-44q-25 0 -43 -5q-17 -4 -30 -22q-13 -19 -15 -58h-30v119h413v-119z" />
    <glyph glyph-name="font-color" unicode="&#xe635;" 
d="M207 146l259 674h96l276 -674h-102l-78 204h-282l-74 -204h-95zM402 423h228l-70 186q-32 86 -48 140q-13 -65 -36 -129zM142 83h764v-133h-764v133z" />
    <glyph glyph-name="radio" unicode="&#xc62a;" 
d="M511 -66q-91 0 -175 35q-80 35 -142 97q-64 64 -98 146t-34 172t34 172t98 146q62 62 142 97q84 35 175 35t174 -35q81 -35 143 -97q64 -64 97.5 -146t33.5 -172t-33.5 -172t-97.5 -146q-62 -62 -143 -97q-83 -35 -174 -35zM511 794q-111 0 -205 -55t-149 -149.5
t-55 -205.5t55 -205.5t149 -149.5t205 -55t205 55t149 149.5t55 205.5t-55 205.5t-149 149.5t-205 55z" />
    <glyph glyph-name="compress" unicode="&#xe640;" 
d="M854 293h-226q-7 0 -14 -6l-2 -2l-1 -1q-6 -7 -6 -14v-226q0 -9 8.5 -16t20 -7t20 7t8.5 16v152l252 -253q7 -6 17.5 -5t19 9.5t9.5 19t-6 17.5l-252 252h152q9 0 15.5 8.5t6.5 20t-6.5 20t-15.5 8.5v0zM170 475h226q7 0 14 6l2 2l1 1q6 7 6 14v226q0 9 -8.5 16t-20 7
t-20 -7t-8.5 -16v-152l-252 253q-7 6 -17.5 5t-19 -9.5t-9.5 -19t5 -17.5l253 -252h-152q-9 0 -15.5 -8.5t-6.5 -20t6.5 -20t15.5 -8.5v0z" />
    <glyph glyph-name="underline" unicode="&#xe636;" 
d="M62 3h831v-69h-831v69zM62 834h358v-54l-77 -6l-18 -16v-390q0 -112 47.5 -159.5t155.5 -47.5q100 0 144.5 50.5t44.5 166.5v376l-19 19l-79 7v54h283v-54l-76 -7l-17 -19v-387q0 -155 -78 -225t-252 -70q-90 0 -158.5 24t-107.5 68q-30 35 -42.5 80t-12.5 128v386
l-18 16l-78 6v54v0z" />
    <glyph glyph-name="radio-checked" unicode="&#xc62b;" 
d="M511 -63q-91 0 -174 35q-80 34 -141.5 95.5t-95.5 142.5q-35 83 -35 173.5t35 173.5q34 81 95.5 142.5t141.5 95.5q83 35 174 35t174 -35q80 -34 142 -95.5t96 -142.5q35 -83 35 -173.5t-35 -173.5q-34 -81 -96 -142.5t-142 -95.5q-83 -35 -174 -35zM511.5 789
q-82.5 0 -158.5 -32q-72 -30 -128.5 -86.5t-87.5 -129.5q-32 -75 -32 -157.5t32 -157.5q31 -73 87.5 -129.5t128.5 -86.5q76 -32 158.5 -32t157.5 32q73 30 129 86.5t87 129.5q32 75 32 157.5t-32 157.5q-31 73 -87 129.5t-129 86.5q-75 32 -157.5 32zM458 198q-8 0 -14 6
l-122 112q-6 6 -6.5 14.5t5.5 14.5t14.5 6.5t14.5 -5.5l104 -96l216 310q5 7 13 8.5t15 -3.5t8.5 -13.5t-3.5 -15.5l-228 -329q-6 -8 -15 -9h-2z" />
    <glyph glyph-name="align-right" unicode="&#xe637;" 
d="M556 807h435v-87h-435v87zM33 546h958v-87h-958v87zM556 285h435v-87h-435v87zM33 23h958v-87h-958v87zM33 23z" />
    <glyph glyph-name="paste" unicode="&#xe63d;" 
d="M343 159h450v-56h-450v56zM343 215h450v57h-450v-57zM568 384h-225v-56h225v56zM906 481v-547h-675v788h433zM681 496h128l-128 128v-128zM850 440h-226v225h-337v-675h563v450zM624 834h-506v-788h56v732h450v56z" />
    <glyph glyph-name="clear" unicode="&#xc637;" 
d="M568 -62q-23 0 -45 10l-3 2l-434 427q-14 18 -20 42q-14 51 21 89l1 1l282 281l3 2q8 4 20.5 8.5t41 4t49.5 -17.5h1l113 -118l139 140q13 12 35 18q42 11 84 -16l2 -1l79 -79q14 -12 21 -30q14 -39 -18 -85l-1 -2l-1 -1l-136 -141l107 -113q13 -13 18 -33
q11 -39 -16 -85l-1 -3l-277 -274q-13 -13 -31 -20q-17 -6 -34 -6v0zM544 -15q17 -8 31.5 -4.5t20.5 7t8 5.5l272 271q16 28 12 49q-3 11 -8 16l-1 1v0l-135 142l163 169q17 26 12 44q-2 9 -8 14l-2 1l-1 1l-76 76q-25 15 -48 10q-11 -3 -19 -9l-146 -147l-22 -20l-140 145
q-23 17 -62 0l-278 -276q-19 -21 -11 -50q4 -14 12 -27l426 -418v0zM258 650l516 -516l-29 -30l-516 516zM270 410l30 -29l-94 -94l-30 29zM504 181l29 -30l-94 -94l-30 30zM431 340l30 -30l-136 -136l-30 30z" />
    <glyph glyph-name="close" unicode="&#xc609;" 
d="M558 386l393 393q10 10 10 23t-9.5 22t-22.5 9t-22 -9l-394 -393l-393 393q-9 9 -22 9t-22.5 -9t-9.5 -22t10 -23l393 -393l-393 -393q-10 -9 -10 -22t9.5 -22.5t22.5 -9.5t22 9l393 393l394 -393q9 -9 22 -9t22.5 9.5t9.5 22.5t-10 22z" />
    <glyph glyph-name="position-copy" unicode="&#xe641;" 
d="M528 60q-6 -7 -16 -7t-16 7q-14 16 -35 41.5t-69 89.5t-84.5 121t-66 123t-29.5 109q0 120 88 205t212 85t212 -85t88 -205q0 -43 -29.5 -109t-66 -123t-84.5 -121t-69 -89.5t-35 -41.5zM512 793q-107 0 -182.5 -73t-75.5 -176q0 -42 30.5 -106.5t78.5 -134t82 -114.5
t67 -84q33 39 67 84t82 114.5t78.5 134t30.5 106.5q0 103 -75.5 176t-182.5 73zM515.5 446q-51.5 0 -88 35.5t-36.5 85t36.5 85t88 35.5t88 -35.5t36.5 -85t-36.5 -85t-88 -35.5zM516 646q-34 0 -58 -23t-24 -56t24 -56.5t58 -23.5t58 23.5t24 56.5t-24 56t-58 23zM373 155
q8 1 15.5 -3.5t9 -13t-3 -15.5t-13.5 -8q-59 -12 -93 -30t-34 -35q0 -11 18.5 -24.5t51 -24.5t82.5 -18.5t106 -7.5t106 7.5t82.5 18.5t51 24.5t18.5 24.5q0 16 -33.5 34.5t-91.5 29.5q-8 2 -13 9t-3 15t9 13t16 3q75 -15 116.5 -42t41.5 -62q0 -36 -44.5 -63t-111.5 -40
t-144 -13t-144 13t-111.5 40t-44.5 63t42 63t119 42z" />
  </font>
</defs>
</svg>
